<svg width="978" height="86" viewBox="0 0 978 86" fill="none" xmlns="http://www.w3.org/2000/svg">
<path d="M931.951 32.5646C931.951 35.0499 933.966 37.0646 936.451 37.0646H937.521L947.224 59.8154L947.131 60.2414C947.122 60.2828 947.113 60.3243 947.105 60.366L946.781 62.0778L946.461 63.4403C945.854 63.3043 945.233 63.2385 944.605 63.2385C942.432 63.2385 940.378 64.0484 938.827 65.7343C937.359 67.3293 936.679 69.3026 936.679 71.3532C936.679 73.6588 937.578 75.7354 939.237 77.3189C940.907 78.914 943.004 79.6764 945.222 79.6764C948.462 79.6764 951.203 78.2343 953.111 75.6904C954.853 73.4678 955.983 70.3442 956.797 66.8953C956.807 66.854 956.816 66.8126 956.824 66.771L957.441 63.7819L957.443 63.7718C957.701 62.51 957.914 61.6441 958.077 61.1067C958.274 60.5082 958.538 59.7668 958.873 58.8735L967.138 38.3617L967.671 37.0646H969C971.485 37.0646 973.5 35.0499 973.5 32.5646V30.5487C973.5 28.0634 971.485 26.0487 969 26.0487H955.501C954.894 26.0487 954.316 26.1687 953.788 26.3863C953.26 26.1687 952.681 26.0487 952.074 26.0487H936.451C933.966 26.0487 931.951 28.0634 931.951 30.5487V32.5646ZM955.501 37.0646H955.891L955.154 38.9124L954.296 36.9014C954.679 37.0078 955.083 37.0646 955.501 37.0646Z" fill="url(#paint0_linear_3_1362)" stroke="#036107" stroke-width="9" stroke-linejoin="round"/>
<path d="M938.202 44.3271C939.022 43.3307 939.384 42.1153 939.384 40.9761C939.384 36.4873 937.026 32.6817 933.594 29.5826C930.17 26.45 926.214 24.5197 921.796 24.5197C916.733 24.5197 912.402 26.7938 908.922 30.6714C905.442 34.5488 903.591 39.1249 903.591 44.2432C903.591 49.4527 905.527 54.0107 909.255 57.6721L911.816 55.0642L909.255 57.6721C912.971 61.3222 917.551 63.202 922.755 63.202C926.938 63.202 930.738 61.9512 933.873 59.2971C937.043 56.6529 938.994 53.0668 939.899 48.8778C940.282 47.1057 939.564 45.3502 938.202 44.3271ZM919.588 46.3102H929.307C928.425 48.9125 927.407 50.3349 926.528 51.0684C925.801 51.6683 924.603 52.1861 922.481 52.1861C921.385 52.1861 920.734 52.0452 920.395 51.9211C920.317 51.8926 920.262 51.8678 920.225 51.8487C920.152 51.6842 920.011 51.3081 919.881 50.6109C919.7 49.6436 919.584 48.3078 919.58 46.5435L919.588 46.3102ZM920.159 51.8087C920.159 51.8086 920.163 51.811 920.169 51.8164C920.162 51.8115 920.159 51.8088 920.159 51.8087Z" fill="url(#paint1_linear_3_1362)" stroke="#036107" stroke-width="9" stroke-linejoin="round"/>
<path d="M876.84 38.265C876.84 40.4888 877.328 42.5941 878.356 44.4736C877.268 45.295 876.565 46.5987 876.565 48.0664V58.0764C876.565 60.5617 878.58 62.5764 881.065 62.5764H882.847C883.807 62.5764 884.697 62.2757 885.428 61.7635C886.266 62.1666 886.989 62.479 887.536 62.6501C887.566 62.6592 887.595 62.668 887.625 62.6766C888.907 63.0484 890.447 63.1325 891.892 63.1325C896.073 63.1325 899.876 61.8771 902.864 59.0527L902.867 59.0502C905.912 56.1668 907.356 52.4138 907.356 48.2055C907.356 45.1194 906.603 42.1546 904.71 39.7453C905.209 38.9776 905.466 38.0693 905.435 37.1403L905.161 29.0072C905.079 26.5823 903.09 24.6588 900.663 24.6588H899.019C898.11 24.6588 897.263 24.9285 896.556 25.3922C896.453 25.3637 896.351 25.3361 896.25 25.3093C894.538 24.8107 892.824 24.5197 891.138 24.5197C887.288 24.5197 883.724 25.6266 880.936 28.2375C878.1 30.8934 876.84 34.4087 876.84 38.265ZM888.25 50.5458C888.367 50.549 888.485 50.5505 888.603 50.5505H893.263C893.965 50.5505 894.421 50.6238 894.69 50.6968C894.699 50.6994 894.708 50.7019 894.717 50.7044C894.721 50.7624 894.724 50.8327 894.724 50.9165C894.724 51.3061 894.659 51.4825 894.637 51.5324C894.622 51.5672 894.601 51.6109 894.507 51.6883C894.335 51.8309 893.767 52.1861 892.235 52.1861C890.393 52.1861 889.408 51.7101 888.806 51.1733C888.625 51.0113 888.437 50.8063 888.25 50.5458ZM894.931 50.7836C894.93 50.7836 894.93 50.7832 894.928 50.7823C894.93 50.7832 894.931 50.7836 894.931 50.7836Z" fill="url(#paint2_linear_3_1362)" stroke="#036107" stroke-width="9" stroke-linejoin="round"/>
<path d="M849.403 38.265C849.403 40.4888 849.891 42.5941 850.919 44.4736C849.832 45.295 849.129 46.5987 849.129 48.0664V58.0764C849.129 60.5617 851.144 62.5764 853.629 62.5764H855.411C856.371 62.5764 857.26 62.2757 857.991 61.7635C858.829 62.1666 859.552 62.479 860.1 62.6501C860.129 62.6592 860.159 62.668 860.188 62.6766C861.471 63.0484 863.01 63.1325 864.456 63.1325C868.637 63.1325 872.439 61.8771 875.427 59.0527L875.43 59.0502C878.475 56.1668 879.92 52.4138 879.92 48.2055C879.92 45.1194 879.166 42.1546 877.273 39.7453C877.773 38.9776 878.03 38.0693 877.998 37.1403L877.724 29.0072C877.643 26.5823 875.653 24.6588 873.227 24.6588H871.582C870.673 24.6588 869.827 24.9285 869.119 25.3922C869.016 25.3637 868.914 25.3361 868.813 25.3093C867.102 24.8107 865.388 24.5197 863.702 24.5197C859.851 24.5197 856.288 25.6266 853.5 28.2375C850.663 30.8934 849.403 34.4087 849.403 38.265ZM860.813 50.5458C860.931 50.549 861.048 50.5505 861.167 50.5505H865.826C866.529 50.5505 866.985 50.6238 867.253 50.6968C867.263 50.6994 867.272 50.7019 867.28 50.7044C867.285 50.7624 867.288 50.8327 867.288 50.9165C867.288 51.3061 867.223 51.4825 867.201 51.5324C867.186 51.5672 867.164 51.6109 867.071 51.6883C866.898 51.8309 866.33 52.1861 864.798 52.1861C862.956 52.1861 861.972 51.7101 861.37 51.1733C861.188 51.0113 861 50.8063 860.813 50.5458ZM867.494 50.7837C867.494 50.7837 867.493 50.7832 867.492 50.7823C867.493 50.7832 867.494 50.7836 867.494 50.7837Z" fill="url(#paint3_linear_3_1362)" stroke="#036107" stroke-width="9" stroke-linejoin="round"/>
<path d="M814.107 32.5646C814.107 35.0499 816.122 37.0646 818.607 37.0646H819.677L829.38 59.8154L829.287 60.2412C829.278 60.2827 829.269 60.3244 829.262 60.3661L828.937 62.0779L828.617 63.4403C828.011 63.3043 827.389 63.2385 826.762 63.2385C824.589 63.2385 822.534 64.0485 820.983 65.7343C819.516 67.3291 818.836 69.3024 818.836 71.3532C818.836 73.659 819.735 75.7355 821.393 77.3189C823.064 78.914 825.16 79.6764 827.379 79.6764C830.619 79.6764 833.359 78.2342 835.267 75.6904C837.009 73.4679 838.139 70.3443 838.953 66.8953C838.963 66.854 838.972 66.8125 838.981 66.7709L839.598 63.7818L839.6 63.7718C839.857 62.5103 840.07 61.6443 840.233 61.1067C840.431 60.5081 840.694 59.7666 841.029 58.8736L849.295 38.3619L849.827 37.0646H851.157C853.642 37.0646 855.657 35.0499 855.657 32.5646V30.5487C855.657 28.0634 853.642 26.0487 851.157 26.0487H837.657C837.051 26.0487 836.472 26.1687 835.944 26.3863C835.416 26.1687 834.838 26.0487 834.231 26.0487H818.607C816.122 26.0487 814.107 28.0634 814.107 30.5487V32.5646ZM837.657 37.0646H838.047L837.31 38.9125L836.452 36.9014C836.836 37.0078 837.24 37.0646 837.657 37.0646Z" fill="url(#paint4_linear_3_1362)" stroke="#036107" stroke-width="9" stroke-linejoin="round"/>
<path d="M795.229 51.9488C795.103 51.8946 795.06 51.8561 795.04 51.8302C794.725 51.3009 794.172 49.4819 794.172 45.3559V42.5058C794.172 38.3381 794.711 36.4842 795.025 35.9448C795.085 35.8506 795.135 35.8068 795.249 35.753C795.418 35.674 795.835 35.5361 796.661 35.5361C798.028 35.5361 799.121 35.9794 800.172 37.0452C801.241 38.1296 801.686 39.2526 801.686 40.6289V48.1364C801.686 49.1699 801.354 49.9999 800.411 50.8608C799.443 51.7443 798.344 52.1866 796.867 52.1866C795.947 52.1866 795.451 52.0451 795.229 51.9488ZM801.686 17.5321V25.2721C800.141 24.7761 798.486 24.5202 796.73 24.5202C791.544 24.5202 787.063 26.6214 783.49 30.4827C779.94 34.3208 778.114 38.9552 778.114 44.1741C778.114 49.3097 780.12 53.813 783.82 57.5073C787.504 61.1862 791.976 63.2025 797.072 63.2025C799.512 63.2025 801.909 62.8169 804.013 61.7569C804.019 61.7543 804.024 61.7517 804.029 61.7491C804.67 62.0996 805.405 62.2988 806.186 62.2988H817.698C820.184 62.2988 822.198 60.2841 822.198 57.7988V55.7829C822.198 53.2976 820.184 51.2829 817.698 51.2829H816.922V9.13931C816.922 7.33435 815.843 5.70404 814.182 4.99793C812.521 4.29183 810.599 4.64658 809.299 5.89908C809.028 6.1604 808.812 6.35474 808.647 6.49448C808.446 6.50716 808.177 6.51617 807.831 6.51617H800.91C798.425 6.51617 796.41 8.53089 796.41 11.0162V13.0321C796.41 15.5173 798.425 17.5321 800.91 17.5321H801.686Z" fill="url(#paint5_linear_3_1362)" stroke="#036107" stroke-width="9" stroke-linejoin="round"/>
<path d="M737.262 54.466L737.277 54.4821C742.306 60.0729 748.476 63.1323 755.629 63.1323C762.785 63.1323 768.939 60.0697 773.929 54.4643C778.911 48.8663 781.44 42.2171 781.44 34.7197C781.44 27.1479 778.924 20.4331 773.943 14.7827C768.951 9.11975 762.767 6.02897 755.56 6.02897C748.426 6.02897 742.278 9.13505 737.262 14.7648C732.241 20.4001 729.681 27.0701 729.681 34.5807C729.681 42.1287 732.235 48.8241 737.262 54.466ZM761.357 20.4107L764.766 18.3778L761.357 20.4107C762.999 23.1635 764.08 27.6223 764.08 34.3026C764.08 41.4749 763.011 46.1185 761.435 48.8276C760.077 51.1633 758.309 52.186 755.56 52.186C752.812 52.186 751.044 51.1633 749.685 48.8275C748.11 46.1185 747.041 41.4749 747.041 34.3026C747.041 27.6223 748.122 23.1635 749.763 20.4107C751.23 17.9519 753.018 16.9753 755.56 16.9753C758.102 16.9753 759.891 17.9519 761.357 20.4107Z" fill="url(#paint6_linear_3_1362)" stroke="#036107" stroke-width="9" stroke-linejoin="round"/>
<path d="M715.895 44.327C716.715 43.3308 717.077 42.1154 717.077 40.9761C717.077 36.4874 714.719 32.6817 711.287 29.5826C707.863 26.45 703.907 24.5197 699.489 24.5197C694.426 24.5197 690.095 26.7938 686.615 30.6714C683.135 34.5488 681.284 39.1249 681.284 44.2432C681.284 49.4526 683.22 54.0107 686.948 57.6721L689.509 55.0642L686.948 57.6721C690.664 61.3222 695.244 63.202 700.448 63.202C704.631 63.202 708.431 61.9512 711.566 59.2971C714.736 56.6529 716.687 53.0669 717.592 48.8778C717.975 47.1057 717.257 45.3502 715.895 44.327ZM697.282 46.3102H707C706.118 48.9126 705.1 50.3349 704.221 51.0684C703.494 51.6683 702.296 52.1861 700.174 52.1861C699.078 52.1861 698.427 52.0452 698.088 51.9211C698.01 51.8926 697.955 51.8678 697.918 51.8487C697.845 51.6842 697.704 51.3081 697.574 50.6109C697.393 49.6436 697.277 48.3078 697.273 46.5435L697.282 46.3102ZM697.852 51.8087C697.852 51.8086 697.856 51.811 697.862 51.8164C697.855 51.8115 697.852 51.8088 697.852 51.8087Z" fill="url(#paint7_linear_3_1362)" stroke="#036107" stroke-width="9" stroke-linejoin="round"/>
<path d="M657.533 38.265C657.533 40.4888 658.021 42.5941 659.049 44.4736C657.962 45.295 657.259 46.5987 657.259 48.0664V58.0764C657.259 60.5617 659.274 62.5764 661.759 62.5764H663.54C664.5 62.5764 665.39 62.2757 666.121 61.7635C666.959 62.1666 667.682 62.479 668.23 62.6501C668.259 62.6592 668.288 62.668 668.318 62.6766C669.601 63.0484 671.14 63.1325 672.586 63.1325C676.767 63.1325 680.569 61.8771 683.557 59.0527L683.56 59.0502C686.605 56.1668 688.05 52.4138 688.05 48.2055C688.05 45.1194 687.296 42.1546 685.403 39.7453C685.903 38.9776 686.16 38.0693 686.128 37.1403L685.854 29.0072C685.773 26.5823 683.783 24.6588 681.357 24.6588H679.712C678.803 24.6588 677.957 24.9285 677.249 25.3922C677.146 25.3637 677.044 25.3361 676.943 25.3093C675.232 24.8107 673.518 24.5197 671.832 24.5197C667.981 24.5197 664.418 25.6266 661.63 28.2375C658.793 30.8934 657.533 34.4087 657.533 38.265ZM668.943 50.5458C669.061 50.549 669.178 50.5505 669.296 50.5505H673.956C674.658 50.5505 675.114 50.6238 675.383 50.6968C675.392 50.6994 675.402 50.7019 675.41 50.7044C675.415 50.7624 675.418 50.8327 675.418 50.9165C675.418 51.3061 675.353 51.4825 675.331 51.5324C675.316 51.5672 675.294 51.6109 675.201 51.6883C675.028 51.8309 674.46 52.1861 672.928 52.1861C671.086 52.1861 670.102 51.7101 669.5 51.1733C669.318 51.0113 669.13 50.8063 668.943 50.5458ZM675.624 50.7837C675.624 50.7837 675.623 50.7832 675.621 50.7823C675.623 50.7832 675.624 50.7836 675.624 50.7837Z" fill="url(#paint8_linear_3_1362)" stroke="#036107" stroke-width="9" stroke-linejoin="round"/>
<path d="M635 38.1842H635.776V52.4017H635C632.515 52.4017 630.5 54.4165 630.5 56.9017V58.9176C630.5 61.4029 632.515 63.4176 635 63.4176H651.857C654.342 63.4176 656.357 61.4029 656.357 58.9176V56.9017C656.357 54.4165 654.342 52.4017 651.857 52.4017H651.149V43.4509V30C651.149 28.2899 650.18 26.7277 648.648 25.9682C647.116 25.2087 645.285 25.3833 643.924 26.4187C643.487 26.7517 643.155 26.9886 642.916 27.1475C642.695 27.1597 642.391 27.1683 641.989 27.1683H635.068C632.643 27.1683 630.653 29.0911 630.571 31.5155L630.503 33.5314C630.461 34.7507 630.917 35.9345 631.764 36.8117C632.612 37.6889 633.78 38.1842 635 38.1842ZM642.631 27.3259C642.625 27.3291 642.627 27.3282 642.635 27.3239C642.633 27.3248 642.632 27.3254 642.631 27.3259Z" fill="url(#paint9_linear_3_1362)" stroke="#036107" stroke-width="9" stroke-linejoin="round"/>
<circle cx="643" cy="15" r="13" fill="#036107"/>
<circle cx="643" cy="15" r="13" stroke="black"/>
<circle cx="643" cy="15" r="4" fill="url(#paint10_linear_3_1362)"/>
<circle cx="643" cy="15" r="4" stroke="black"/>
<path d="M617.72 35.7188C617.899 35.7764 617.991 35.8254 618.029 35.8481C618.049 35.8709 618.07 35.8934 618.091 35.9157C618.113 35.9506 618.211 36.116 618.317 36.5102C618.47 37.082 618.592 37.9632 618.592 39.2386V48.6924C618.592 49.883 618.473 50.7007 618.327 51.2279C618.234 51.5621 618.147 51.7226 618.113 51.7777C618.067 51.8066 617.954 51.868 617.732 51.9368C617.314 52.0666 616.619 52.1865 615.554 52.1865C614.323 52.1865 613.465 52.061 612.898 51.902C612.555 51.8056 612.364 51.7103 612.271 51.654C612.22 51.5703 612.133 51.4005 612.044 51.0961C611.889 50.567 611.763 49.7478 611.763 48.5534V39.0996C611.763 36.8576 612.3 36.2238 612.399 36.1277C612.519 36.0096 613.222 35.4665 615.554 35.4665C616.638 35.4665 617.325 35.5915 617.72 35.7188ZM618.137 51.7604C618.137 51.7604 618.135 51.7621 618.131 51.7651C618.135 51.7618 618.137 51.7603 618.137 51.7604ZM618.041 35.8563C618.047 35.8598 618.049 35.8617 618.049 35.8617C618.049 35.8618 618.046 35.8601 618.041 35.8563ZM628.876 30.3547C625.161 26.6447 620.671 24.5896 615.554 24.5896C610.348 24.5896 605.731 26.6867 601.822 30.4255C597.909 34.1685 595.636 38.6948 595.636 43.896C595.636 49.1216 597.807 53.6634 601.688 57.3693C605.546 61.053 610.15 63.0634 615.348 63.0634C620.557 63.0634 625.126 61.0433 628.876 57.2984C632.629 53.5496 634.65 48.9744 634.65 43.757C634.65 38.6014 632.605 34.0799 628.876 30.3547Z" fill="url(#paint11_linear_3_1362)" stroke="#036107" stroke-width="9" stroke-linejoin="round"/>
<path d="M597.194 48.025C596.021 47.7165 594.823 47.9006 593.834 48.4601V37.0656H597.762C600.247 37.0656 602.262 35.0509 602.262 32.5656V30.5497C602.262 28.0644 600.247 26.0497 597.762 26.0497H593.834V21.3739C593.834 18.8887 591.819 16.8739 589.334 16.8739H587.415C584.93 16.8739 582.915 18.8887 582.915 21.3739V22.3471C582.915 23.3995 582.595 24.2111 581.835 25.0044C581.066 25.8079 580.386 26.0497 579.603 26.0497H577.342C574.857 26.0497 572.842 28.0644 572.842 30.5497V32.5656C572.842 35.0509 574.857 37.0656 577.342 37.0656H578.392V51.8904C578.392 55.0211 579.411 58.0212 581.917 60.2133C584.297 62.2942 587.3 63.0637 590.361 63.0637C592.947 63.0637 595.546 62.4678 597.7 60.8067C599.725 59.2455 601.096 56.9694 602.073 54.5466C602.556 53.3482 602.501 51.9999 601.921 50.8451C601.341 49.6902 600.293 48.8402 599.044 48.5116L597.194 48.025Z" fill="url(#paint12_linear_3_1362)" stroke="#036107" stroke-width="9" stroke-linejoin="round"/>
<path d="M570.596 24.8675C568.929 24.8675 567.405 25.1815 566.019 25.7527C565.595 25.3141 565.079 24.9581 564.491 24.7173C562.802 24.0246 560.861 24.4214 559.58 25.7218C559.462 25.8413 559.363 25.9344 559.282 26.0053C559.277 26.0097 559.272 26.0139 559.267 26.0181C559.071 26.0355 558.787 26.0492 558.399 26.0492H551.204C548.718 26.0492 546.704 28.0639 546.704 30.5492V32.5651C546.704 35.0504 548.718 37.0651 551.204 37.0651H551.98V51.2826H551.204C548.718 51.2826 546.704 53.2974 546.704 55.7826V57.7985C546.704 60.2838 548.718 62.2985 551.204 62.2985H568.677C571.163 62.2985 573.177 60.2838 573.177 57.7985V55.7826C573.177 53.2974 571.163 51.2826 568.677 51.2826H567.284V44.5215C567.284 42.6925 567.443 41.2298 567.697 40.0734C569.025 41.0629 570.608 41.5835 572.309 41.5835C574.403 41.5835 576.429 40.8191 577.958 39.1487L574.639 36.1103L577.958 39.1487C579.432 37.5393 580.03 35.561 580.03 33.6078C580.03 31.1514 579.108 28.8195 577.091 27.1342C575.196 25.4625 572.855 24.8675 570.596 24.8675ZM570.042 36.1729C570.021 36.1524 570 36.1315 569.979 36.1103L568.814 37.2593C569.082 36.8776 569.384 36.5799 569.737 36.3495C569.835 36.2856 569.936 36.2268 570.042 36.1729Z" fill="url(#paint13_linear_3_1362)" stroke="#036107" stroke-width="9" stroke-linejoin="round"/>
<path d="M533.801 35.7188C533.979 35.7764 534.072 35.8254 534.109 35.8481C534.13 35.8709 534.15 35.8934 534.171 35.9157C534.194 35.9506 534.292 36.116 534.397 36.5102C534.55 37.082 534.672 37.9632 534.672 39.2386V48.6924C534.672 49.883 534.553 50.7007 534.407 51.2279C534.315 51.5621 534.228 51.7226 534.193 51.7777C534.148 51.8066 534.035 51.868 533.813 51.9368C533.395 52.0666 532.699 52.1865 531.635 52.1865C530.404 52.1865 529.545 52.061 528.979 51.902C528.635 51.8056 528.444 51.7103 528.352 51.654C528.3 51.5703 528.214 51.4005 528.125 51.0961C527.97 50.567 527.843 49.7478 527.843 48.5534V39.0996C527.843 36.8576 528.381 36.2238 528.479 36.1277C528.6 36.0096 529.302 35.4665 531.635 35.4665C532.718 35.4665 533.405 35.5915 533.801 35.7188ZM534.218 51.7604C534.218 51.7604 534.216 51.7621 534.212 51.7651C534.216 51.7618 534.218 51.7603 534.218 51.7604ZM534.122 35.8563C534.127 35.8598 534.129 35.8617 534.129 35.8618C534.129 35.8618 534.127 35.8601 534.122 35.8563ZM544.956 30.3546C541.242 26.6447 536.752 24.5896 531.635 24.5896C526.429 24.5896 521.812 26.6867 517.903 30.4255C513.989 34.1685 511.717 38.6948 511.717 43.896C511.717 49.1216 513.887 53.6634 517.769 57.3693C521.627 61.053 526.23 63.0634 531.429 63.0634C536.638 63.0634 541.207 61.0433 544.956 57.2984C548.709 53.5496 550.73 48.9744 550.73 43.757C550.73 38.6014 548.686 34.0799 544.956 30.3546Z" fill="url(#paint14_linear_3_1362)" stroke="#036107" stroke-width="9" stroke-linejoin="round"/>
<path d="M480.706 18.3991C481.489 18.259 482.417 18.1472 483.499 18.07V51.2819H480.941C478.456 51.2819 476.441 53.2966 476.441 55.7819V57.7978C476.441 60.2831 478.456 62.2978 480.941 62.2978H502.458C504.943 62.2978 506.958 60.2831 506.958 57.7978V55.7819C506.958 53.2966 504.943 51.2819 502.458 51.2819H499.968V18.0232C501.262 18.0974 502.327 18.2235 503.183 18.3883C504.561 18.6538 504.996 18.9464 505 18.9414C505 18.9409 504.996 18.937 504.987 18.9294C505.006 18.9458 505.025 18.9621 505.044 18.9782C505.082 19.0312 505.26 19.2954 505.449 19.9858C505.716 20.9651 505.906 22.4522 505.906 24.5703V25.9606C505.906 28.4459 507.921 30.4606 510.406 30.4606H512.462C513.685 30.4606 514.855 29.9629 515.704 29.082C516.552 28.2011 517.005 27.013 516.959 25.7909L516.411 11.2626C516.32 8.84506 514.333 6.93227 511.914 6.93227H471.553C469.134 6.93227 467.148 8.84506 467.056 11.2626L466.508 25.7909C466.462 27.013 466.915 28.2011 467.763 29.082C468.612 29.9629 469.782 30.4606 471.005 30.4606H473.061C475.546 30.4606 477.561 28.4459 477.561 25.9606L477.561 24.5703C477.561 22.4657 477.761 21.0013 478.036 20.0467C478.224 19.3939 478.4 19.1349 478.45 19.0708C478.499 19.0402 478.649 18.9548 478.949 18.8441C479.348 18.6973 479.921 18.5397 480.706 18.3991Z" fill="url(#paint15_linear_3_1362)" stroke="#036107" stroke-width="9" stroke-linejoin="round"/>
<path d="M424.404 38.265C424.404 40.4888 424.892 42.5941 425.92 44.4736C424.833 45.295 424.13 46.5987 424.13 48.0664V58.0764C424.13 60.5617 426.145 62.5764 428.63 62.5764H430.412C431.372 62.5764 432.262 62.2757 432.992 61.7635C433.83 62.1666 434.553 62.479 435.101 62.6501C435.13 62.6592 435.16 62.668 435.189 62.6766C436.472 63.0484 438.011 63.1325 439.457 63.1325C443.638 63.1325 447.441 61.8771 450.429 59.0527L450.431 59.0502C453.477 56.1668 454.921 52.4138 454.921 48.2055C454.921 45.1194 454.167 42.1546 452.275 39.7453C452.774 38.9776 453.031 38.0693 453 37.1403L452.726 29.0072C452.644 26.5823 450.654 24.6588 448.228 24.6588H446.584C445.674 24.6588 444.828 24.9285 444.12 25.3922C444.018 25.3637 443.916 25.3361 443.814 25.3093C442.103 24.8107 440.389 24.5197 438.703 24.5197C434.852 24.5197 431.289 25.6266 428.501 28.2375C425.665 30.8934 424.404 34.4087 424.404 38.265ZM435.815 50.5458C435.932 50.549 436.05 50.5505 436.168 50.5505H440.828C441.53 50.5505 441.986 50.6238 442.254 50.6968C442.264 50.6994 442.273 50.7019 442.282 50.7044C442.286 50.7624 442.289 50.8327 442.289 50.9165C442.289 51.3061 442.224 51.4825 442.202 51.5325C442.187 51.5672 442.166 51.611 442.072 51.6883C441.899 51.8309 441.332 52.1861 439.8 52.1861C437.958 52.1861 436.973 51.7101 436.371 51.1733C436.19 51.0113 436.001 50.8063 435.815 50.5458ZM442.495 50.7836C442.495 50.7837 442.494 50.7832 442.493 50.7823C442.494 50.7832 442.495 50.7836 442.495 50.7836Z" fill="url(#paint16_linear_3_1362)" stroke="#036107" stroke-width="9" stroke-linejoin="round"/>
<path d="M410.336 35.7188C410.515 35.7764 410.607 35.8254 410.645 35.8481C410.665 35.8709 410.686 35.8934 410.707 35.9157C410.729 35.9506 410.827 36.116 410.933 36.5102C411.086 37.082 411.208 37.9632 411.208 39.2386V48.6924C411.208 49.883 411.089 50.7007 410.943 51.2279C410.85 51.5621 410.763 51.7226 410.729 51.7777C410.683 51.8066 410.57 51.868 410.348 51.9368C409.93 52.0666 409.235 52.1865 408.17 52.1865C406.939 52.1865 406.081 52.061 405.514 51.902C405.17 51.8056 404.98 51.7103 404.887 51.654C404.836 51.5703 404.749 51.4005 404.66 51.096C404.505 50.567 404.378 49.7478 404.378 48.5534V39.0996C404.378 36.8576 404.916 36.2238 405.014 36.1277C405.135 36.0096 405.838 35.4665 408.17 35.4665C409.254 35.4665 409.941 35.5915 410.336 35.7188ZM410.753 51.7604C410.753 51.7604 410.751 51.7621 410.747 51.7651C410.751 51.7618 410.753 51.7603 410.753 51.7604ZM410.657 35.8563C410.663 35.8598 410.665 35.8617 410.665 35.8618C410.665 35.8618 410.662 35.8601 410.657 35.8563ZM421.492 30.3547C417.777 26.6447 413.287 24.5896 408.17 24.5896C402.964 24.5896 398.347 26.6867 394.438 30.4255C390.525 34.1685 388.252 38.6948 388.252 43.896C388.252 49.1216 390.423 53.6634 394.304 57.3693C398.162 61.053 402.765 63.0634 407.964 63.0634C413.173 63.0634 417.742 61.0433 421.492 57.2984C425.245 53.5496 427.266 48.9744 427.266 43.757C427.266 38.6014 425.221 34.0799 421.492 30.3547Z" fill="url(#paint17_linear_3_1362)" stroke="#036107" stroke-width="9" stroke-linejoin="round"/>
<path d="M388.823 52.8366C387.421 51.2994 385.704 50.3395 383.848 49.8072C383.878 49.78 383.908 49.7527 383.938 49.7252C386.868 47.056 388.676 43.6917 388.762 39.7444C390.136 39.4464 391.428 38.751 392.47 37.5982C393.76 36.1698 394.385 34.4055 394.385 32.5653C394.385 30.4208 393.544 28.4604 391.947 26.9989C390.388 25.479 388.413 24.7982 386.39 24.7982C384.932 24.7982 383.491 25.0596 382.12 25.6325C381.663 25.8232 381.182 26.0613 380.683 26.3362C379.951 25.9237 379.224 25.5777 378.518 25.3379C376.997 24.7657 375.323 24.5896 373.713 24.5896C369.46 24.5896 365.658 26.0381 362.559 28.9252L365.215 31.7753L362.559 28.9252C359.474 31.8 357.769 35.4458 357.769 39.6557C357.769 41.6112 358.17 43.5355 359.111 45.2997C358.848 45.5646 358.598 45.8484 358.364 46.1523L358.347 46.1742C356.735 48.2908 356.262 50.9025 356.262 53.3499C356.262 55.579 356.701 57.8221 357.902 59.793C356.143 61.8858 355.028 64.383 355.028 67.3221C355.028 71.5417 357.044 74.9655 360.445 77.336C363.743 79.6495 367.696 80.6503 372 80.6503C377.414 80.6503 382.222 79.026 386.047 75.5286C389.961 72.0415 391.918 67.467 391.918 62.1781C391.918 58.7776 391.151 55.3875 388.823 52.8366ZM373.449 42.3365C373.397 42.6635 373.343 42.9063 373.297 43.0797C373.281 43.08 373.265 43.0801 373.248 43.0802C373.231 42.9868 373.213 42.8824 373.196 42.7662C373.079 41.9803 373.005 40.8901 373.005 39.4471C373.005 38.0903 373.092 37.0604 373.226 36.3094C373.292 35.9392 373.364 35.669 373.427 35.4812C373.428 35.4766 373.43 35.472 373.432 35.4675C373.439 35.4673 373.447 35.4671 373.456 35.467C373.463 35.5123 373.471 35.5602 373.479 35.6109C373.592 36.3496 373.667 37.4015 373.667 38.8215C373.667 40.3457 373.582 41.5004 373.449 42.3365ZM373.184 35.4937C373.182 35.4944 373.181 35.4947 373.181 35.4947C373.181 35.4947 373.182 35.4944 373.184 35.4937ZM369.441 64.5927H380.017C380.137 64.5927 380.245 64.5956 380.341 64.6004C380.207 65.463 379.707 66.4126 378.354 67.5057C376.707 68.8359 374.856 69.4954 372.616 69.4954C370.68 69.4954 369.552 69.0242 368.839 68.4572C368.178 67.9317 368.003 67.4935 368.003 66.8355C368.003 65.7998 368.247 65.398 368.366 65.2467C368.47 65.1138 368.738 64.8426 369.441 64.5927Z" fill="url(#paint18_linear_3_1362)" stroke="#036107" stroke-width="9" stroke-linejoin="round"/>
<path d="M322.935 36.8052C322.935 38.735 323.488 40.6935 324.866 42.3178C322.291 44.6251 320.742 47.6766 320.742 51.4031C320.742 55.1181 322.535 58.1298 325.489 60.1766C328.324 62.1405 331.745 62.924 335.384 62.924C337.92 62.924 340.332 62.6074 342.466 61.7958L341.718 59.8307L342.466 61.7957C343.177 61.5251 343.868 61.194 344.539 60.8108C344.753 60.9752 344.976 61.1306 345.21 61.2754L346.142 59.7717L345.21 61.2755C347.002 62.3861 349.05 62.7154 350.939 62.7154C353.111 62.7154 355.205 62.1509 357.055 60.9132C358.874 59.6966 360.212 57.9953 361.184 56.0869C362.273 53.9495 361.494 51.3339 359.413 50.1408L357.837 49.2371C357.123 48.8278 356.344 48.6357 355.576 48.6403V37.4309C355.576 33.2055 353.507 29.8208 350.05 27.5517C346.774 25.4013 342.796 24.5197 338.467 24.5197C334.627 24.5197 331.072 25.4923 328.045 27.6484C325.028 29.7976 322.935 32.87 322.935 36.8052ZM340.34 48.1907V50.4417C340.176 50.594 339.945 50.7687 339.616 50.958C338.886 51.3601 338.116 51.5605 337.234 51.5605C337.013 51.5605 336.828 51.5521 336.675 51.5395C336.628 51.2031 336.595 50.7478 336.595 50.1518C336.595 49.3972 336.685 48.9633 336.75 48.752C336.833 48.7236 336.951 48.687 337.109 48.6457C337.506 48.5423 338.058 48.4358 338.794 48.3425C339.257 48.2837 339.772 48.2328 340.34 48.1907ZM336.815 52.1764C336.815 52.1764 336.814 52.175 336.813 52.172C336.814 52.1749 336.815 52.1763 336.815 52.1764ZM340.34 37.273C339.768 37.2937 339.204 37.3244 338.648 37.3658C338.65 37.2949 338.65 37.2239 338.65 37.1528C338.65 36.622 338.606 36.0505 338.495 35.4671C338.554 35.4664 338.613 35.4661 338.673 35.4661C339.382 35.4661 339.93 35.4997 340.34 35.5478C340.34 35.5499 340.34 35.5519 340.34 35.554V37.273ZM335.432 35.9912C335.426 35.9948 335.423 35.9966 335.422 35.9965C335.422 35.9965 335.425 35.9946 335.432 35.9912ZM333.997 33.6771L333.191 34.7894L333.997 33.6771Z" fill="url(#paint19_linear_3_1362)" stroke="#036107" stroke-width="9" stroke-linejoin="round"/>
<path d="M305.422 52.2558C303.935 52.2558 302.811 51.8008 301.804 50.8455C300.847 49.8581 300.397 48.761 300.397 47.302V39.5165C300.397 38.5572 300.708 37.7424 301.672 36.8616C302.691 35.9319 303.74 35.5358 305.011 35.5358C305.948 35.5358 306.444 35.6764 306.657 35.767C306.722 35.7947 306.757 35.8161 306.772 35.826C306.798 35.867 306.825 35.9075 306.853 35.9475C307.061 36.2503 307.638 37.7607 307.638 41.6714V46.3288C307.638 49.9782 307.083 51.4977 306.818 51.8958C306.801 51.9211 306.784 51.9467 306.768 51.9724C306.734 52.025 306.722 52.0402 306.643 52.0766C306.518 52.1338 306.161 52.2558 305.422 52.2558ZM299.001 25.6221C298.549 25.1914 298.003 24.851 297.388 24.635C295.605 24.009 293.623 24.564 292.425 26.019C292.15 26.037 291.782 26.0492 291.306 26.0492H284.317C281.831 26.0492 279.817 28.0639 279.817 30.5492V32.5651C279.817 35.0504 281.831 37.0651 284.317 37.0651H285.093V68.522H284.317C281.831 68.522 279.817 70.5367 279.817 73.022V75.0379C279.817 77.5232 281.831 79.5379 284.317 79.5379H301.105C303.59 79.5379 305.605 77.5232 305.605 75.0379V73.022C305.605 70.5367 303.59 68.522 301.105 68.522H300.397V62.6018C301.913 63.0307 303.521 63.2022 305.148 63.2022C310.309 63.2022 314.784 61.1444 318.364 57.3347C321.946 53.5219 323.764 48.8701 323.764 43.6178C323.764 38.4822 321.758 33.9789 318.058 30.2846C314.386 26.6177 309.941 24.5894 304.874 24.5894C302.833 24.5894 300.841 24.8919 299.001 25.6221Z" fill="url(#paint20_linear_3_1362)" stroke="#036107" stroke-width="9" stroke-linejoin="round"/>
<path d="M247.518 36.8052C247.518 38.735 248.071 40.6935 249.449 42.3178C246.874 44.6251 245.325 47.6766 245.325 51.4031C245.325 55.1181 247.118 58.1298 250.072 60.1766C252.907 62.1405 256.328 62.924 259.967 62.924C262.503 62.924 264.915 62.6074 267.049 61.7958L266.301 59.8307L267.049 61.7957C267.76 61.5251 268.451 61.194 269.122 60.8108C269.336 60.9752 269.56 61.1306 269.793 61.2754L270.725 59.7717L269.793 61.2755C271.585 62.3861 273.633 62.7154 275.522 62.7154C277.694 62.7154 279.788 62.1509 281.638 60.9132C283.457 59.6966 284.795 57.9953 285.767 56.0869C286.856 53.9495 286.077 51.3339 283.996 50.1408L282.42 49.2371C281.706 48.8278 280.927 48.6357 280.159 48.6403V37.4309C280.159 33.2055 278.09 29.8208 274.634 27.5517C271.357 25.4013 267.379 24.5197 263.05 24.5197C259.21 24.5197 255.655 25.4923 252.628 27.6484C249.611 29.7976 247.518 32.87 247.518 36.8052ZM264.923 48.1907V50.4417C264.759 50.594 264.528 50.7687 264.199 50.958C263.469 51.3601 262.699 51.5605 261.817 51.5605C261.596 51.5605 261.411 51.5521 261.258 51.5395C261.211 51.2031 261.178 50.7478 261.178 50.1518C261.178 49.3972 261.268 48.9633 261.333 48.752C261.416 48.7236 261.534 48.687 261.692 48.6457C262.089 48.5423 262.641 48.4358 263.377 48.3425C263.84 48.2837 264.355 48.2328 264.923 48.1907ZM261.398 52.1764C261.398 52.1764 261.397 52.175 261.396 52.172C261.397 52.1749 261.398 52.1763 261.398 52.1764ZM264.923 37.273C264.351 37.2937 263.787 37.3244 263.231 37.3658C263.233 37.2949 263.233 37.2239 263.233 37.1528C263.233 36.622 263.189 36.0505 263.078 35.4671C263.137 35.4664 263.196 35.4661 263.256 35.4661C263.965 35.4661 264.513 35.4997 264.923 35.5478C264.923 35.5499 264.923 35.5519 264.923 35.554V37.273ZM260.015 35.9912C260.009 35.9948 260.006 35.9966 260.005 35.9965C260.005 35.9965 260.008 35.9946 260.015 35.9912ZM258.58 33.6771L257.774 34.7894L258.58 33.6771Z" fill="url(#paint21_linear_3_1362)" stroke="#036107" stroke-width="9" stroke-linejoin="round"/>
<path d="M236.051 6.49683C235.799 6.50871 235.483 6.51627 235.095 6.51627H228.105C225.62 6.51627 223.605 8.53099 223.605 11.0163V13.0322C223.605 15.5174 225.62 17.5322 228.105 17.5322H228.882V51.283H228.105C225.62 51.283 223.605 53.2977 223.605 55.783V57.7989C223.605 60.2842 225.62 62.2989 228.105 62.2989H245.031C247.516 62.2989 249.531 60.2842 249.531 57.7989V55.783C249.531 53.2977 247.516 51.283 245.031 51.283H244.254V9.06989C244.254 7.14771 243.033 5.43775 241.215 4.81367C239.397 4.18959 237.384 4.7892 236.203 6.30614C236.149 6.37613 236.098 6.43955 236.051 6.49683Z" fill="url(#paint22_linear_3_1362)" stroke="#036107" stroke-width="9" stroke-linejoin="round"/>
<path d="M208.712 35.554V37.273C208.14 37.2937 207.576 37.3244 207.019 37.3658C207.021 37.2949 207.022 37.2239 207.022 37.1528C207.022 36.622 206.978 36.0505 206.867 35.4671C206.925 35.4664 206.985 35.4661 207.045 35.4661C207.754 35.4661 208.302 35.4997 208.712 35.5478C208.712 35.5499 208.712 35.5519 208.712 35.554ZM200.711 33.6771L200.447 33.3076L200.711 33.6771ZM203.794 35.9965C203.794 35.9965 203.797 35.9946 203.803 35.9912C203.797 35.9948 203.794 35.9965 203.794 35.9965ZM210.837 61.7958L210.09 59.8307L210.837 61.7957C211.549 61.5251 212.24 61.194 212.91 60.8108C213.124 60.9752 213.348 61.1306 213.582 61.2754L214.514 59.7716L213.582 61.2755C215.373 62.3861 217.422 62.7154 219.31 62.7154C221.482 62.7154 223.576 62.1509 225.427 60.9132C227.246 59.6966 228.584 57.9953 229.556 56.0869C230.645 53.9495 229.865 51.3339 227.785 50.1408L226.208 49.2371C225.495 48.8278 224.715 48.6357 223.947 48.6403V37.4309C223.947 33.2055 221.879 29.8208 218.422 27.5517C215.146 25.4013 211.168 24.5197 206.839 24.5197C202.998 24.5197 199.444 25.4923 196.417 27.6484C193.399 29.7976 191.307 32.87 191.307 36.8052C191.307 38.735 191.86 40.6935 193.238 42.3178C190.663 44.6251 189.114 47.6766 189.114 51.4031C189.114 55.1181 190.906 58.1298 193.861 60.1766C196.695 62.1405 200.117 62.924 203.755 62.924C206.292 62.924 208.704 62.6074 210.837 61.7958ZM208.712 48.1907V50.4417C208.548 50.594 208.316 50.7687 207.988 50.958C207.257 51.3601 206.488 51.5605 205.606 51.5605C205.384 51.5605 205.199 51.5521 205.046 51.5395C205 51.2031 204.966 50.7478 204.966 50.1518C204.966 49.3972 205.056 48.9633 205.122 48.752C205.205 48.7236 205.322 48.687 205.481 48.6457C205.878 48.5423 206.43 48.4358 207.165 48.3425C207.629 48.2837 208.144 48.2328 208.712 48.1907ZM205.187 52.1764C205.187 52.1764 205.186 52.175 205.185 52.172C205.186 52.1749 205.187 52.1763 205.187 52.1764Z" fill="url(#paint23_linear_3_1362)" stroke="#036107" stroke-width="9" stroke-linejoin="round"/>
<path d="M182.683 31.435C185.168 31.435 187.183 29.4203 187.183 26.935V12.1981C187.183 9.71284 185.168 7.69812 182.683 7.69812H180.764C179.319 7.69812 178.007 8.38589 177.178 9.4798L176.829 9.29466C173.471 7.40164 169.824 6.44688 165.963 6.44688C158.407 6.44688 151.93 9.36744 146.803 15.0114C141.698 20.6309 139.193 27.5283 139.193 35.4156C139.193 43.2414 141.572 49.9878 146.621 55.2226L146.655 55.258C151.774 60.4509 158.425 62.9246 166.169 62.9246C170.025 62.9246 173.649 62.3158 176.982 61.0199C180.265 59.7431 183.644 57.6637 187.108 54.942C188.194 54.0889 188.828 52.7845 188.828 51.4038V48.8134H189.878C192.363 48.8134 194.378 46.7987 194.378 44.3134V42.2975C194.378 39.8122 192.363 37.7975 189.878 37.7975H170.074C167.589 37.7975 165.574 39.8122 165.574 42.2975V44.3134C165.574 46.7987 167.589 48.8134 170.074 48.8134H172.084V49.3879C172.084 50.0023 171.949 50.3395 171.275 50.79L171.232 50.8189C170.409 51.3826 168.919 51.9087 166.306 51.9087C162.632 51.9087 160.612 50.7005 159.315 48.7351C157.75 46.3124 156.621 41.8898 156.621 34.7205C156.621 28.0061 157.722 23.5847 159.368 20.9012C160.871 18.5187 162.786 17.4628 165.62 17.4628C168.706 17.4628 170.883 18.3604 172.537 19.9205L172.566 19.9472C174.339 21.5907 175.685 24.0469 176.333 27.7167C176.712 29.8672 178.581 31.435 180.764 31.435H182.683Z" fill="url(#paint24_linear_3_1362)" stroke="#036107" stroke-width="9" stroke-linejoin="round"/>
<path d="M124.407 44.3271C125.227 43.3308 125.589 42.1154 125.589 40.9761C125.589 36.4874 123.231 32.6817 119.799 29.5826C116.375 26.45 112.419 24.5197 108.001 24.5197C102.938 24.5197 98.6071 26.7938 95.127 30.6714C91.6471 34.5488 89.796 39.1249 89.796 44.2432C89.796 49.4526 91.7321 54.0107 95.4597 57.6721L98.0212 55.0642L95.4597 57.6721C99.1759 61.3222 103.756 63.202 108.96 63.202C113.143 63.202 116.943 61.9512 120.078 59.2971C123.248 56.6529 125.199 53.0668 126.104 48.8778C126.487 47.1057 125.769 45.3502 124.407 44.3271ZM105.794 46.3102H115.512C114.63 48.9126 113.612 50.3349 112.733 51.0684C112.006 51.6683 110.808 52.1861 108.686 52.1861C107.59 52.1861 106.939 52.0452 106.6 51.9211C106.522 51.8926 106.467 51.8678 106.43 51.8487C106.357 51.6842 106.216 51.3081 106.086 50.6109C105.905 49.6436 105.789 48.3078 105.786 46.5434L105.794 46.3102ZM106.364 51.8087C106.364 51.8086 106.368 51.811 106.374 51.8164C106.367 51.8115 106.364 51.8089 106.364 51.8087Z" fill="url(#paint25_linear_3_1362)" stroke="#036107" stroke-width="9" stroke-linejoin="round"/>
<path d="M69.127 9C69.127 7.0879 67.9187 5.38459 66.114 4.75277C64.3093 4.12095 62.3024 4.6986 61.1097 6.19315C61.0165 6.30991 60.9368 6.40163 60.8712 6.47219C60.6834 6.4955 60.4106 6.51589 60.0359 6.51589H53.0464C50.5611 6.51589 48.5464 8.53061 48.5464 11.0159V13.0318C48.5464 15.5171 50.5611 17.5318 53.0464 17.5318H53.8228V51.2826H53.0464C50.5611 51.2826 48.5464 53.2973 48.5464 55.7826V57.7985C48.5464 60.2838 50.5611 62.2985 53.0464 62.2985H69.7664C70.3598 62.2985 70.9264 62.1836 71.4452 61.9749C71.964 62.1836 72.5306 62.2985 73.1241 62.2985H90.1181C92.6034 62.2985 94.6181 60.2838 94.6181 57.7985V55.7826C94.6181 53.2973 92.6034 51.2826 90.1181 51.2826H89.4103V39.864C89.4103 35.7112 88.6898 31.5072 86.0179 28.6716C83.2986 25.6891 79.1434 24.8675 75.1113 24.8675C72.9774 24.8675 70.9767 25.2041 69.127 25.8625V9ZM69.7664 51.2826H69.127V39.7714C69.6874 38.6475 70.4326 37.7478 71.3698 37.0165C72.4492 36.1742 73.3154 35.9099 74.0375 35.8853V51.2826H73.1241C72.5306 51.2826 71.964 51.3975 71.4452 51.6062C70.9264 51.3975 70.3598 51.2826 69.7664 51.2826Z" fill="url(#paint26_linear_3_1362)" stroke="#036107" stroke-width="9" stroke-linejoin="round"/>
<path d="M18.7012 18.3991C19.4837 18.259 20.4117 18.1472 21.4941 18.07V51.2819H18.936C16.4508 51.2819 14.436 53.2966 14.436 55.7819V57.7978C14.436 60.2831 16.4508 62.2978 18.936 62.2978H40.4527C42.938 62.2978 44.9527 60.2831 44.9527 57.7978V55.7819C44.9527 53.2966 42.938 51.2819 40.4527 51.2819H37.9632V18.0232C39.257 18.0974 40.3222 18.2235 41.1777 18.3883C42.5561 18.6538 42.9915 18.9464 42.9949 18.9414C42.9952 18.9409 42.9907 18.937 42.982 18.9294C43.0009 18.9458 43.0199 18.9621 43.0391 18.9782C43.0774 19.0312 43.2552 19.2954 43.4437 19.9858C43.711 20.965 43.9016 22.4522 43.9016 24.5703V25.9606C43.9016 28.4459 45.9163 30.4606 48.4016 30.4606H50.4573C51.6802 30.4606 52.8505 29.9629 53.6987 29.082C54.547 28.2011 55.0002 27.013 54.9541 25.7909L54.4059 11.2626C54.3147 8.84506 52.3284 6.93227 49.9091 6.93227H9.5482C7.12894 6.93227 5.14262 8.84506 5.0514 11.2626L4.5032 25.7909C4.45709 27.013 4.91032 28.2011 5.75858 29.082C6.60685 29.9629 7.77709 30.4606 9 30.4606H11.0557C13.541 30.4606 15.5557 28.4459 15.5557 25.9606V24.5703C15.5557 22.4657 15.7557 21.0013 16.0308 20.0467C16.2189 19.3939 16.3955 19.1349 16.4449 19.0708C16.4942 19.0402 16.6439 18.9548 16.9445 18.8441C17.3435 18.6973 17.9158 18.5397 18.7012 18.3991Z" fill="url(#paint27_linear_3_1362)" stroke="#036107" stroke-width="9" stroke-linejoin="round"/>
<defs>
<linearGradient id="paint0_linear_3_1362" x1="936.451" y1="52.8626" x2="969" y2="52.8626" gradientUnits="userSpaceOnUse">
<stop stop-color="#026C06"/>
<stop offset="1" stop-color="#C8EDAB"/>
</linearGradient>
<linearGradient id="paint1_linear_3_1362" x1="908.091" y1="43.8609" x2="935.501" y2="43.8609" gradientUnits="userSpaceOnUse">
<stop stop-color="#026C06"/>
<stop offset="1" stop-color="#C8EDAB"/>
</linearGradient>
<linearGradient id="paint2_linear_3_1362" x1="881.065" y1="43.8261" x2="902.856" y2="43.8261" gradientUnits="userSpaceOnUse">
<stop stop-color="#026C06"/>
<stop offset="1" stop-color="#C8EDAB"/>
</linearGradient>
<linearGradient id="paint3_linear_3_1362" x1="853.629" y1="43.8261" x2="875.42" y2="43.8261" gradientUnits="userSpaceOnUse">
<stop stop-color="#026C06"/>
<stop offset="1" stop-color="#C8EDAB"/>
</linearGradient>
<linearGradient id="paint4_linear_3_1362" x1="818.607" y1="52.8626" x2="851.157" y2="52.8626" gradientUnits="userSpaceOnUse">
<stop stop-color="#026C06"/>
<stop offset="1" stop-color="#C8EDAB"/>
</linearGradient>
<linearGradient id="paint5_linear_3_1362" x1="782.614" y1="33.9209" x2="817.698" y2="33.9209" gradientUnits="userSpaceOnUse">
<stop stop-color="#026C06"/>
<stop offset="1" stop-color="#C8EDAB"/>
</linearGradient>
<linearGradient id="paint6_linear_3_1362" x1="734.181" y1="34.5807" x2="776.94" y2="34.5807" gradientUnits="userSpaceOnUse">
<stop stop-color="#026C06"/>
<stop offset="1" stop-color="#C8EDAB"/>
</linearGradient>
<linearGradient id="paint7_linear_3_1362" x1="685.784" y1="43.8609" x2="713.194" y2="43.8609" gradientUnits="userSpaceOnUse">
<stop stop-color="#026C06"/>
<stop offset="1" stop-color="#C8EDAB"/>
</linearGradient>
<linearGradient id="paint8_linear_3_1362" x1="661.759" y1="43.8261" x2="683.55" y2="43.8261" gradientUnits="userSpaceOnUse">
<stop stop-color="#026C06"/>
<stop offset="1" stop-color="#C8EDAB"/>
</linearGradient>
<linearGradient id="paint9_linear_3_1362" x1="635" y1="35.3178" x2="651.857" y2="35.3178" gradientUnits="userSpaceOnUse">
<stop stop-color="#026C06"/>
<stop offset="1" stop-color="#C8EDAB"/>
</linearGradient>
<linearGradient id="paint10_linear_3_1362" x1="647" y1="15" x2="639.5" y2="15" gradientUnits="userSpaceOnUse">
<stop stop-color="#C8EDAB"/>
<stop offset="1" stop-color="#026C06"/>
</linearGradient>
<linearGradient id="paint11_linear_3_1362" x1="600.136" y1="43.8265" x2="630.15" y2="43.8265" gradientUnits="userSpaceOnUse">
<stop stop-color="#026C06"/>
<stop offset="1" stop-color="#C8EDAB"/>
</linearGradient>
<linearGradient id="paint12_linear_3_1362" x1="577.342" y1="39.9688" x2="597.899" y2="39.9688" gradientUnits="userSpaceOnUse">
<stop stop-color="#026C06"/>
<stop offset="1" stop-color="#C8EDAB"/>
</linearGradient>
<linearGradient id="paint13_linear_3_1362" x1="551.204" y1="43.3397" x2="575.53" y2="43.3397" gradientUnits="userSpaceOnUse">
<stop stop-color="#026C06"/>
<stop offset="1" stop-color="#C8EDAB"/>
</linearGradient>
<linearGradient id="paint14_linear_3_1362" x1="516.217" y1="43.8265" x2="546.23" y2="43.8265" gradientUnits="userSpaceOnUse">
<stop stop-color="#026C06"/>
<stop offset="1" stop-color="#C8EDAB"/>
</linearGradient>
<linearGradient id="paint15_linear_3_1362" x1="471.005" y1="34.615" x2="512.462" y2="34.615" gradientUnits="userSpaceOnUse">
<stop stop-color="#026C06"/>
<stop offset="1" stop-color="#C8EDAB"/>
</linearGradient>
<linearGradient id="paint16_linear_3_1362" x1="428.63" y1="43.8261" x2="450.421" y2="43.8261" gradientUnits="userSpaceOnUse">
<stop stop-color="#026C06"/>
<stop offset="1" stop-color="#C8EDAB"/>
</linearGradient>
<linearGradient id="paint17_linear_3_1362" x1="392.752" y1="43.8265" x2="422.766" y2="43.8265" gradientUnits="userSpaceOnUse">
<stop stop-color="#026C06"/>
<stop offset="1" stop-color="#C8EDAB"/>
</linearGradient>
<linearGradient id="paint18_linear_3_1362" x1="359.528" y1="52.62" x2="389.885" y2="52.62" gradientUnits="userSpaceOnUse">
<stop stop-color="#026C06"/>
<stop offset="1" stop-color="#C8EDAB"/>
</linearGradient>
<linearGradient id="paint19_linear_3_1362" x1="325.242" y1="43.7218" x2="357.175" y2="43.7218" gradientUnits="userSpaceOnUse">
<stop stop-color="#026C06"/>
<stop offset="1" stop-color="#C8EDAB"/>
</linearGradient>
<linearGradient id="paint20_linear_3_1362" x1="284.317" y1="51.9594" x2="319.264" y2="51.9594" gradientUnits="userSpaceOnUse">
<stop stop-color="#026C06"/>
<stop offset="1" stop-color="#C8EDAB"/>
</linearGradient>
<linearGradient id="paint21_linear_3_1362" x1="249.825" y1="43.7218" x2="281.758" y2="43.7218" gradientUnits="userSpaceOnUse">
<stop stop-color="#026C06"/>
<stop offset="1" stop-color="#C8EDAB"/>
</linearGradient>
<linearGradient id="paint22_linear_3_1362" x1="228.105" y1="33.4344" x2="245.031" y2="33.4344" gradientUnits="userSpaceOnUse">
<stop stop-color="#026C06"/>
<stop offset="1" stop-color="#C8EDAB"/>
</linearGradient>
<linearGradient id="paint23_linear_3_1362" x1="193.614" y1="43.7218" x2="225.546" y2="43.7218" gradientUnits="userSpaceOnUse">
<stop stop-color="#026C06"/>
<stop offset="1" stop-color="#C8EDAB"/>
</linearGradient>
<linearGradient id="paint24_linear_3_1362" x1="143.693" y1="34.6858" x2="189.878" y2="34.6858" gradientUnits="userSpaceOnUse">
<stop stop-color="#026C06"/>
<stop offset="1" stop-color="#C8EDAB"/>
</linearGradient>
<linearGradient id="paint25_linear_3_1362" x1="94.296" y1="43.8609" x2="121.706" y2="43.8609" gradientUnits="userSpaceOnUse">
<stop stop-color="#026C06"/>
<stop offset="1" stop-color="#C8EDAB"/>
</linearGradient>
<linearGradient id="paint26_linear_3_1362" x1="53.0464" y1="33.3993" x2="90.1181" y2="33.3993" gradientUnits="userSpaceOnUse">
<stop stop-color="#026C06"/>
<stop offset="1" stop-color="#C8EDAB"/>
</linearGradient>
<linearGradient id="paint27_linear_3_1362" x1="9" y1="34.615" x2="50.4573" y2="34.615" gradientUnits="userSpaceOnUse">
<stop stop-color="#026C06"/>
<stop offset="1" stop-color="#C8EDAB"/>
</linearGradient>
</defs>
</svg>
