<svg width="451" height="124" viewBox="0 0 451 124" fill="none" xmlns="http://www.w3.org/2000/svg">
<path d="M445.715 45.4898L446.18 45.646L445.715 45.4898C445.269 46.818 445.053 48.4312 445.053 50.3156C445.053 52.2814 445.268 53.9375 445.715 55.2676C445.936 55.9264 446.201 56.467 446.528 56.8513C446.863 57.2452 447.288 57.5004 447.798 57.5004C448.302 57.5004 448.717 57.2373 449.041 56.8463C449.358 56.4633 449.618 55.9247 449.839 55.2676C450.285 53.9375 450.5 52.2814 450.5 50.3156C450.5 48.4312 450.285 46.818 449.839 45.4898L449.365 45.6489L449.839 45.4898C449.618 44.8327 449.358 44.2941 449.041 43.9111C448.717 43.5201 448.302 43.257 447.798 43.257C447.288 43.257 446.863 43.5121 446.528 43.9061C446.201 44.2904 445.936 44.831 445.715 45.4898ZM449.839 78.9134C449.618 78.2563 449.358 77.7177 449.041 77.3347C448.717 76.9437 448.302 76.6806 447.798 76.6806C447.288 76.6806 446.863 76.9357 446.528 77.3297C446.201 77.714 445.936 78.2546 445.715 78.9134C445.269 80.2416 445.053 81.8548 445.053 83.7392C445.053 85.705 445.268 87.3611 445.715 88.6912C445.936 89.35 446.201 89.8906 446.528 90.2749C446.863 90.6688 447.288 90.9239 447.798 90.9239C448.302 90.9239 448.717 90.6608 449.041 90.2699C449.358 89.8869 449.618 89.3483 449.839 88.6912C450.285 87.3611 450.5 85.705 450.5 83.7392C450.5 81.8548 450.285 80.2416 449.839 78.9134Z" fill="url(#paint0_linear_3_1534)" stroke="#B73045"/>
<path d="M440.584 70.457L439.902 70.0057L439.811 70.8184C439.163 76.6104 438.294 80.7993 437.22 83.423C436.173 85.9655 434.875 87.0227 433.405 87.0227C432.655 87.0227 432.039 86.7547 431.527 86.2045C431 85.6389 430.563 84.7526 430.249 83.4944C429.644 80.9524 429.332 76.1332 429.332 68.985L429.416 61.7988H429.416V61.7929V61.0316H440.308C440.522 61.0316 440.732 60.9771 440.918 60.854C441.101 60.7327 441.233 60.5638 441.327 60.3781C441.506 60.0209 441.571 59.5484 441.571 59.0181C441.571 53.9132 440.67 48.9768 438.871 44.2119C437.989 41.839 437.079 40.0202 436.131 38.7856C435.19 37.5587 434.143 36.8243 432.982 36.8243C431.641 36.8243 430.469 37.686 429.448 39.1511C428.424 40.6221 427.484 42.7922 426.617 45.6286C424.878 51.3185 424.012 57.7595 424.012 64.946C424.012 72.2157 424.906 78.4544 426.708 83.6505C427.606 86.2408 428.608 88.2281 429.728 89.5766C430.855 90.9316 432.137 91.6804 433.575 91.6804C435.919 91.6804 437.729 89.6631 439.12 86.1969C440.56 82.6795 441.497 77.8276 441.95 71.6674L441.972 71.3754L441.728 71.2138L440.584 70.457ZM435.997 54.994L435.997 55.0089L435.999 55.0238L436.082 56.0113C436.081 56.1322 436.074 56.2296 436.063 56.3061C436.059 56.3323 436.055 56.3547 436.051 56.3739H429.459V55.1082C429.459 50.071 429.77 46.4714 430.372 44.2698C430.687 43.1707 431.07 42.3987 431.496 41.9093C431.909 41.4345 432.356 41.2297 432.855 41.2297C433.288 41.2297 433.681 41.4088 434.052 41.8372C434.435 42.2803 434.784 42.9831 435.074 43.9898C435.654 46.0016 435.955 49.0662 435.955 53.2162H435.954L435.955 53.2282L435.997 54.994Z" fill="url(#paint1_linear_3_1534)" stroke="#B73045"/>
<path d="M395.81 37.0727L394.827 36.9411C394.647 37.6024 394.474 38.1261 394.309 38.5188C394.139 38.9237 393.996 39.1434 393.899 39.2404L393.891 39.248L393.884 39.256C393.724 39.4285 393.322 39.5997 392.472 39.5997H388.153H387.653V40.0997V43.7574V44.2574H388.153H390.914V85.3837H388.153H387.653V85.8837V89.5414V90.0414H388.153H398.147H398.647V89.5414V85.8837V85.3837H398.147H395.81V55.1338C396.203 51.222 396.9 47.9997 397.892 45.4547C398.405 44.1752 398.92 43.2554 399.427 42.6635C399.933 42.0719 400.382 41.861 400.773 41.861C401.189 41.861 401.647 42.1634 402.011 43.3098C402.369 44.4328 402.56 46.1675 402.56 48.5502V85.3837H400.053H399.553V85.8837V89.5414V90.0414H400.053H409.835H410.335V89.5414V85.8837V85.3837H409.835H407.456V57.1268C407.456 53.4788 408.012 50.0446 409.122 46.8211C409.681 45.1998 410.24 44.0236 410.791 43.2621C411.349 42.4899 411.826 42.2394 412.207 42.2394C412.468 42.2394 412.708 42.3417 412.945 42.6076C413.194 42.8879 413.432 43.3459 413.633 44.0255C414.036 45.3841 414.248 47.4697 414.248 50.316V85.3837H411.741H411.241V85.8837V89.5414V90.0414H411.741H421.947H422.447V89.5414V85.8837V85.3837H421.947H419.229V57.2529C419.229 50.2739 418.779 45.2482 417.853 42.2271C417.403 40.6727 416.786 39.4532 415.975 38.6164C415.149 37.7651 414.138 37.3294 412.969 37.3294C411.289 37.3294 409.949 38.3276 408.935 40.1041C408.21 41.3755 407.559 43.1944 406.976 45.5422C406.628 43.3206 406.125 41.5319 405.455 40.1915C404.501 38.2834 403.16 37.2033 401.408 37.2033C399.884 37.2033 398.599 38.1487 397.536 39.7973C396.904 40.7779 396.33 42.0358 395.81 43.5634V37.0727Z" fill="url(#paint2_linear_3_1534)" stroke="#B73045"/>
<path d="M375.332 44.257H378.093V85.3833H375.332H374.832V85.8833V89.541V90.041H375.332H385.75H386.25V89.541V85.8833V85.3833H385.75H383.031V37.0722L382.075 36.8679C381.738 37.6204 381.457 38.2084 381.231 38.6362C380.994 39.0859 380.846 39.3018 380.781 39.3661L380.771 39.3764L380.761 39.3874C380.74 39.411 380.667 39.47 380.47 39.5202C380.278 39.5692 380.009 39.5993 379.651 39.5993H375.374H374.88L374.874 40.0935L374.832 43.7512L374.826 44.257H375.332ZM382.624 5.63364C382.403 4.97654 382.143 4.43794 381.826 4.05493C381.502 3.66399 381.087 3.40089 380.583 3.40089C380.079 3.40089 379.664 3.66399 379.34 4.05493C379.023 4.43794 378.763 4.97654 378.542 5.63364C378.096 6.96189 377.881 8.57501 377.881 10.4595C377.881 12.3439 378.096 13.9571 378.542 15.2853C378.763 15.9424 379.023 16.481 379.34 16.864C379.664 17.255 380.079 17.5181 380.583 17.5181C381.087 17.5181 381.502 17.255 381.826 16.864C382.143 16.481 382.403 15.9424 382.624 15.2853C383.07 13.9571 383.285 12.3439 383.285 10.4595C383.285 8.57501 383.07 6.96189 382.624 5.63364Z" fill="url(#paint3_linear_3_1534)" stroke="#B73045"/>
<path d="M351.025 13.0555C352.012 10.7961 354.154 9.58897 357.69 9.57185V85.3829H353.828H353.328V85.8829V89.5406V90.0406H353.828H367.126H367.626V89.5406V85.8829V85.3829H367.126H363.306V9.57166H363.822C365.502 9.57166 366.835 9.87711 367.853 10.4528C368.863 11.0235 369.593 11.877 370.048 13.0378L370.048 13.0379L370.052 13.0478C370.529 14.1931 370.906 16.1052 371.159 18.8297C371.411 21.5412 371.538 25.0138 371.538 29.252V31.7745V32.2745H372.038H373.308H373.815L373.808 31.7681L373.47 5.40755L373.463 4.91398H372.97L348.026 4.91398H347.533L347.526 5.40755L347.188 31.7681L347.181 32.2745H347.688H348.958H349.458V31.7745V29.252C349.458 25.0142 349.592 21.5425 349.858 18.8323C350.125 16.1086 350.522 14.1994 351.025 13.0568L351.025 13.0555Z" fill="url(#paint4_linear_3_1534)" stroke="#B73045"/>
<path d="M320.366 1L319.383 0.868854C319.146 1.7408 318.92 2.42001 318.708 2.9152C318.486 3.43164 318.307 3.67645 318.2 3.76163L318.193 3.76689L318.186 3.77238C317.894 4.02089 317.52 4.15768 317.028 4.15768L312.709 4.15768H312.209V4.65768V8.31535V8.81535H312.709H315.47V85.3833H312.709H312.209V85.8833V89.541V90.041H312.709H323.042H323.542V89.541V85.8833V85.3833H323.042H320.366V55.1422C320.898 51.2328 321.707 48.0556 322.78 45.5967C323.321 44.3584 323.856 43.468 324.376 42.8946C324.895 42.322 325.353 42.1128 325.752 42.1128C326.335 42.1128 326.887 42.5042 327.312 43.7315C327.736 44.9542 327.962 46.8414 327.962 49.4327V85.3833H325.117H324.617V85.8833V89.541V90.041H325.117H335.619H336.119V89.541V85.8833V85.3833H335.619H332.901V57.0003C332.901 49.9416 332.452 44.9517 331.522 42.0928C331.069 40.6131 330.422 39.452 329.551 38.6578C328.669 37.8533 327.59 37.4552 326.345 37.4552C324.77 37.4552 323.425 38.4152 322.298 40.1056C321.592 41.1627 320.95 42.535 320.366 44.2134V1Z" fill="url(#paint5_linear_3_1534)" stroke="#B73045"/>
<path d="M293.895 73.2701L293.895 73.2716C293.399 75.1835 293.159 77.9247 293.159 81.4693C293.159 84.5151 293.365 87.0436 293.784 89.0448C294.164 90.8611 294.729 92.2875 295.515 93.2678C293.433 97.3068 292.397 101.828 292.397 106.821C292.397 111.574 293.123 115.483 294.607 118.517C296.111 121.618 298.093 123.339 300.604 123.339C303.72 123.339 306.105 120.636 307.89 115.826C309.726 111.041 310.633 104.921 310.633 97.4874C310.633 92.387 310.238 88.5104 309.424 85.893C308.62 83.3047 307.323 81.7261 305.39 81.7261H297.259C296.551 81.7261 296.188 81.5169 295.999 81.2208C295.755 80.7448 295.599 79.8483 295.599 78.4423C295.599 76.6275 295.836 75.2334 296.277 74.2288L296.278 74.226C296.753 73.1245 297.3 72.7621 297.852 72.7621H298.063H298.162C298.823 73.5818 299.364 74.1605 299.77 74.4399L299.777 74.4447L299.785 74.4493C300.267 74.7571 300.814 74.9062 301.409 74.9062C302.481 74.9062 303.438 74.3339 304.278 73.342C305.115 72.3541 305.877 70.906 306.578 69.0318C307.986 65.2664 308.685 61.0013 308.685 56.244C308.685 52.3776 308.21 48.5126 307.262 44.6498C307.358 44.3351 307.498 44.0229 307.686 43.7133L307.685 43.7434L307.685 43.7434V43.7574C307.685 45.3041 307.857 46.6234 308.219 47.7004L308.223 47.7131L308.228 47.7256C308.422 48.2154 308.647 48.6249 308.917 48.9194C309.193 49.2206 309.543 49.4286 309.963 49.4286C310.408 49.4286 310.769 49.1992 311.04 48.8653C311.302 48.5419 311.505 48.0944 311.669 47.5622C311.999 46.492 312.157 45.2203 312.157 43.7574C312.157 42.0438 311.943 40.5934 311.492 39.4253C311.286 38.8124 311.035 38.306 310.723 37.9441C310.4 37.5698 309.989 37.3294 309.497 37.3294C308.735 37.3294 308.083 37.7341 307.543 38.3964C307.122 38.913 306.591 39.7895 305.952 41.0018C305.641 40.3821 305.353 39.8487 305.089 39.4032C304.717 38.7765 304.374 38.2916 304.057 37.9879C303.447 37.2917 302.632 36.9511 301.663 36.9511C300.506 36.9511 299.475 37.5196 298.577 38.5396C297.686 39.5516 296.898 41.0356 296.196 42.9551C294.788 46.8074 294.091 51.3669 294.091 56.6223C294.091 59.0827 294.262 61.2581 294.607 63.1449L294.608 63.149C294.936 64.8619 295.51 66.8338 296.323 69.0619C295.177 70.0023 294.38 71.4258 293.895 73.2701ZM303.248 67.4978L303.248 67.4978L303.246 67.5037C303.04 68.6098 302.754 69.3807 302.417 69.8637C302.095 70.3269 301.748 70.5008 301.366 70.5008C300.978 70.5008 300.641 70.3385 300.333 69.9391C300.012 69.5207 299.732 68.8492 299.528 67.8762C299.143 65.8248 298.944 61.9608 298.944 56.244C298.944 50.6959 299.185 46.7884 299.654 44.4879C299.889 43.3364 300.19 42.5275 300.532 42.0181C300.865 41.5232 301.199 41.3565 301.536 41.3565C301.932 41.3565 302.266 41.5156 302.562 41.8913C302.874 42.2874 303.142 42.9259 303.333 43.8575C303.716 45.7343 303.916 49.4684 303.916 55.1088C303.916 61.1662 303.688 65.2821 303.248 67.4978ZM298.79 94.2036H305.559C305.952 94.2036 306.28 94.3181 306.563 94.5439C306.854 94.7759 307.124 95.1462 307.353 95.6938C307.815 96.7991 308.066 98.5162 308.066 100.893C308.066 105.633 307.312 109.769 305.818 113.311C305.068 115.09 304.276 116.382 303.454 117.224C302.64 118.058 301.82 118.429 300.985 118.429C299.625 118.429 298.398 117.451 297.379 115.074C296.37 112.719 295.853 109.681 295.853 105.938C295.853 102.724 296.123 100.133 296.651 98.1522C297.157 96.2552 297.886 94.9659 298.79 94.2036Z" fill="url(#paint6_linear_3_1534)" stroke="#B73045"/>
<path d="M283.421 84.7328V89.5414V90.0414H283.921H291.078H291.578V89.5414V85.8837V85.3837H291.078H288.317V37.0727L287.356 36.8792C287.075 37.5474 286.836 38.0846 286.637 38.4934C286.433 38.9111 286.285 39.1674 286.19 39.2938L286.589 39.5952L286.19 39.2938C286.031 39.5044 285.84 39.5997 285.572 39.5997H280.702H280.202V40.0997V43.7574V44.2574H280.702H283.421V69.4872C283.421 74.1541 282.819 78.2607 281.626 81.8146C281.026 83.5995 280.392 84.8943 279.736 85.7337C279.083 86.5704 278.458 86.8972 277.865 86.8972C277.516 86.8972 277.239 86.781 277.003 86.5416C276.754 86.2892 276.528 85.8757 276.358 85.2512C276.009 83.8889 275.824 81.4252 275.824 77.8116V37.0727L274.85 36.9135C274.597 37.6665 274.385 38.2555 274.214 38.6844C274.033 39.137 273.919 39.3524 273.871 39.413C273.857 39.4318 273.806 39.4815 273.657 39.5259C273.507 39.5704 273.291 39.5997 272.995 39.5997H268.125H267.625V40.0997V43.7574V44.2574H268.125H270.885V74.0278C270.885 79.7616 271.397 84.1197 272.45 87.0613C272.977 88.5346 273.652 89.6868 274.499 90.4749C275.356 91.2734 276.373 91.6811 277.526 91.6811C279.216 91.6811 280.585 90.7456 281.636 89.0477L281.638 89.0433C282.284 87.9746 282.877 86.5343 283.421 84.7328Z" fill="url(#paint7_linear_3_1534)" stroke="#B73045"/>
<path d="M259.701 44.4049L259.701 44.4049L259.705 44.4155C260.384 46.5189 260.739 50.3151 260.739 55.8656V73.0188C260.739 78.3141 260.384 81.9859 259.705 84.0905C259.368 85.1333 258.929 85.8655 258.414 86.334C257.911 86.7927 257.309 87.0234 256.581 87.0234C255.755 87.0234 255.072 86.7841 254.506 86.3177C253.933 85.8456 253.447 85.1141 253.072 84.0795C252.339 81.8921 251.956 78.1398 251.956 72.7666V55.6133C251.956 50.4938 252.367 46.823 253.157 44.5523C253.55 43.4228 254.042 42.6235 254.608 42.1098C255.164 41.606 255.813 41.3565 256.581 41.3565C257.32 41.3565 257.926 41.5954 258.429 42.0711C258.943 42.5578 259.377 43.3194 259.701 44.4049ZM263.322 45.3618C262.396 42.6488 261.394 40.5711 260.3 39.1625C259.206 37.7529 257.968 36.9511 256.581 36.9511C255.166 36.9511 253.89 37.7737 252.747 39.2226C251.605 40.6717 250.542 42.8111 249.546 45.6077C247.547 51.2188 246.552 57.4568 246.552 64.3161C246.552 71.3401 247.518 77.5789 249.461 83.0247C250.429 85.7386 251.475 87.8166 252.613 89.225C253.753 90.6358 255.032 91.4288 256.454 91.4288C257.876 91.4288 259.146 90.6343 260.265 89.2213C261.382 87.8115 262.396 85.7322 263.322 83.0181C265.178 77.5733 266.101 71.2524 266.101 64.0638C266.101 57.0419 265.178 50.8055 263.322 45.3618Z" fill="url(#paint8_linear_3_1534)" stroke="#B73045"/>
<path d="M237.539 37.0727L236.565 36.9135C236.343 37.5764 236.138 38.1031 235.952 38.4996C235.76 38.9074 235.606 39.136 235.501 39.2404L235.494 39.248L235.486 39.256C235.311 39.4454 234.97 39.5997 234.329 39.5997H229.882H229.382V40.0997V43.7574V44.2574H229.882H232.643V85.3837H229.882H229.382V85.8837V89.5414V90.0414H229.882H240.681H241.181V89.5414V85.8837V85.3837H240.681H237.539V65.4512C237.539 58.5686 237.91 53.1806 238.642 49.273C239.009 47.3191 239.463 45.7526 239.997 44.561C240.18 44.1513 240.372 43.7904 240.569 43.4757C240.452 44.2191 240.393 44.9858 240.393 45.7754C240.393 47.5744 240.594 49.1039 241.012 50.349C241.218 50.9631 241.46 51.469 241.755 51.8302C242.055 52.1981 242.446 52.4556 242.926 52.4556C243.413 52.4556 243.812 52.2054 244.118 51.8302C244.416 51.4651 244.651 50.9549 244.843 50.3387C245.231 49.0957 245.416 47.527 245.416 45.6493C245.416 43.2693 245.133 41.3469 244.534 39.9151C243.977 38.4362 243.123 37.4556 241.867 37.4556C240.563 37.4556 239.543 38.5471 238.728 40.2285C238.304 41.1047 237.908 42.1939 237.539 43.4922V37.0727Z" fill="url(#paint9_linear_3_1534)" stroke="#B73045"/>
<path d="M212.344 1L211.361 0.868854C211.124 1.7408 210.899 2.42001 210.686 2.9152C210.464 3.43164 210.285 3.67645 210.178 3.76163L210.171 3.76689L210.165 3.77238C209.873 4.02089 209.499 4.15768 209.006 4.15768L204.687 4.15768H204.187V4.65768V8.31535V8.81535H204.687H207.448V85.3833H204.687H204.187V85.8833V89.541L204.187 90.041H204.687H215.02H215.52V89.541V85.8833V85.3833H215.02H212.344V55.1422C212.877 51.2328 213.685 48.0556 214.758 45.5967C215.299 44.3584 215.834 43.468 216.354 42.8946C216.873 42.322 217.331 42.1128 217.73 42.1128C218.313 42.1128 218.865 42.5042 219.291 43.7315C219.714 44.9542 219.941 46.8414 219.941 49.4327V85.3833H217.095H216.595V85.8833V89.541V90.041H217.095H227.598H228.098V89.541V85.8833V85.3833H227.598H224.879V57.0003C224.879 49.9416 224.43 44.9517 223.501 42.0928C223.047 40.6131 222.4 39.452 221.529 38.6578C220.647 37.8533 219.568 37.4552 218.323 37.4552C216.748 37.4552 215.404 38.4152 214.276 40.1056C213.571 41.1627 212.928 42.535 212.344 44.2134V1Z" fill="url(#paint10_linear_3_1534)" stroke="#B73045"/>
<path d="M180.804 13.0555C181.79 10.7961 183.932 9.58897 187.468 9.57185V85.3829H183.606H183.106V85.8829V89.5406V90.0406H183.606H196.904H197.404V89.5406V85.8829V85.3829H196.904H193.084V9.57166H193.6C195.28 9.57166 196.613 9.87711 197.632 10.4528C198.641 11.0235 199.371 11.8769 199.826 13.0378L199.826 13.0379L199.83 13.0478C200.307 14.1931 200.684 16.1052 200.937 18.8297C201.189 21.5412 201.316 25.0138 201.316 29.252V31.7745V32.2745H201.816H203.087H203.593L203.587 31.7681L203.248 5.40755L203.241 4.91398H202.748L177.804 4.91398H177.311L177.304 5.40755L176.966 31.7681L176.959 32.2745H177.466H178.736H179.236V31.7745V29.252C179.236 25.0142 179.37 21.5425 179.636 18.8323C179.903 16.1086 180.3 14.1994 180.803 13.0568L180.804 13.0555Z" fill="url(#paint11_linear_3_1534)" stroke="#B73045"/>
<path d="M151.277 71.383H150.777V71.883V90.0453V90.5453H151.277H152.378H152.878V90.0453V89.1624V87.775C152.878 87.4404 152.886 87.1595 152.902 86.9293L153.199 87.3083C153.844 88.3109 154.377 89.1101 154.797 89.7034C155.209 90.2856 155.538 90.7084 155.767 90.9184L155.774 90.9246L155.781 90.9306C156.309 91.3795 157.073 91.5543 157.968 91.5543C160.324 91.5543 162.059 89.5215 163.309 86.0526L163.309 86.0523C164.606 82.4465 165.244 77.8006 165.244 72.1353C165.244 67.321 164.806 63.5188 163.907 60.7553C163.459 59.3784 162.917 58.2972 162.261 57.5523C161.593 56.7953 160.794 56.3739 159.874 56.3739H157.291C156.694 56.3739 156.195 56.236 155.776 55.9761C155.355 55.7153 154.988 55.3141 154.682 54.7454C154.063 53.593 153.725 51.8004 153.725 49.3063C153.725 46.6526 154.103 44.6394 154.815 43.2249C155.523 41.8195 156.41 41.2297 157.46 41.2297C158.693 41.2297 159.734 41.994 160.538 43.8312C161.348 45.6804 161.86 48.508 162.043 52.3571L162.065 52.8334H162.542H163.558H164.064L164.058 52.3276L163.889 37.5708L163.883 37.0765H163.389H162.373H161.873V37.5765C161.873 38.4817 161.857 39.2093 161.826 39.7638C161.427 39.1443 160.893 38.5809 160.232 38.0718C159.32 37.2851 158.405 36.8243 157.502 36.8243C155.325 36.8243 153.742 38.6331 152.628 41.6939C151.499 44.7984 150.947 48.942 150.947 54.0991C150.947 58.1661 151.373 61.5842 152.24 64.3394C152.672 65.7108 153.174 66.7863 153.766 67.528C154.364 68.2781 155.088 68.7253 155.936 68.7253H158.815C159.321 68.7253 159.747 68.8738 160.115 69.1678C160.491 69.468 160.832 69.9407 161.117 70.6251C161.692 72.0038 162 74.131 162 77.0542C162 80.3046 161.62 82.7944 160.894 84.5574C160.166 86.3238 159.24 87.0227 158.18 87.0227C156.859 87.0227 155.655 85.9955 154.677 83.4345C153.709 80.8991 153.046 77.0494 152.708 71.8506L152.677 71.383H152.209H151.277Z" fill="url(#paint12_linear_3_1534)" stroke="#B73045"/>
<path d="M147.451 70.457L146.769 70.0057L146.678 70.8184C146.03 76.6104 145.161 80.7993 144.087 83.423C143.04 85.9656 141.742 87.0227 140.272 87.0227C139.522 87.0227 138.906 86.7547 138.394 86.2045C137.867 85.6389 137.43 84.7526 137.116 83.4944C136.511 80.9524 136.199 76.1332 136.199 68.985L136.283 61.7988H136.283V61.7929V61.0316H147.175C147.389 61.0316 147.599 60.9771 147.785 60.854C147.968 60.7327 148.1 60.5638 148.193 60.3781C148.373 60.0209 148.438 59.5484 148.438 59.0181C148.438 53.9132 147.537 48.9768 145.738 44.2119C144.856 41.839 143.946 40.0202 142.998 38.7856C142.057 37.5587 141.01 36.8243 139.849 36.8243C138.508 36.8243 137.336 37.686 136.315 39.1511C135.291 40.6221 134.351 42.7922 133.484 45.6286C131.745 51.3185 130.879 57.7595 130.879 64.946C130.879 72.2157 131.773 78.4544 133.575 83.6505C134.473 86.2408 135.475 88.2281 136.595 89.5766C137.721 90.9316 139.004 91.6804 140.442 91.6804C142.786 91.6804 144.596 89.6631 145.987 86.1969C147.427 82.6795 148.364 77.8276 148.817 71.6674L148.839 71.3754L148.595 71.2138L147.451 70.457ZM142.864 54.994L142.864 55.009L142.866 55.0238L142.948 56.0113C142.948 56.1322 142.941 56.2296 142.93 56.3061C142.926 56.3323 142.922 56.3547 142.918 56.3739H136.326V55.1082C136.326 50.071 136.637 46.4714 137.239 44.2698C137.554 43.1707 137.937 42.3987 138.363 41.9093C138.776 41.4345 139.223 41.2297 139.722 41.2297C140.155 41.2297 140.548 41.4088 140.919 41.8372C141.302 42.2803 141.651 42.9831 141.941 43.9898C142.521 46.0016 142.821 49.0662 142.821 53.2162H142.821L142.822 53.2282L142.864 54.994Z" fill="url(#paint13_linear_3_1534)" stroke="#B73045"/>
<path d="M118.253 8.81552H121.014L121.014 85.3835H118.253H117.753V85.8835V89.5412V90.0412H118.253H128.713H129.213V89.5412V85.8835V85.3835H128.713H125.952L125.952 1.1263L124.969 0.998187C124.759 1.78933 124.566 2.42525 124.389 2.91035C124.214 3.39163 124.068 3.68848 123.959 3.84217C123.9 3.90682 123.784 3.98674 123.558 4.0507C123.321 4.11782 122.997 4.15785 122.572 4.15785L118.253 4.15785H117.753V4.65785V8.31552V8.81552H118.253Z" fill="url(#paint14_linear_3_1534)" stroke="#B73045"/>
<path d="M99.4386 73.2701L99.4382 73.2716C98.9421 75.1835 98.7022 77.9247 98.7022 81.4693C98.7022 84.5151 98.9078 87.0436 99.3269 89.0448C99.7072 90.8611 100.272 92.2875 101.058 93.2678C98.9763 97.3068 97.9399 101.828 97.9399 106.821C97.9399 111.574 98.6658 115.483 100.15 118.517C101.654 121.618 103.637 123.339 106.147 123.339C109.263 123.339 111.648 120.636 113.433 115.826C115.269 111.041 116.176 104.921 116.176 97.4874C116.176 92.387 115.781 88.5104 114.968 85.893C114.163 83.3047 112.866 81.7261 110.933 81.7261H102.802C102.094 81.7261 101.731 81.5169 101.542 81.2208C101.298 80.7448 101.142 79.8483 101.142 78.4423C101.142 76.6275 101.379 75.2334 101.82 74.2288L101.821 74.226C102.297 73.1245 102.843 72.7621 103.395 72.7621H103.606H103.705C104.366 73.5818 104.907 74.1605 105.314 74.4399L105.321 74.4447L105.328 74.4493C105.81 74.7571 106.357 74.9062 106.952 74.9062C108.025 74.9062 108.981 74.3339 109.822 73.342C110.658 72.3541 111.42 70.906 112.121 69.0318C113.529 65.2664 114.228 61.0013 114.228 56.244C114.228 52.3776 113.753 48.5126 112.805 44.6498C112.901 44.3351 113.042 44.0229 113.229 43.7133L113.228 43.7434L113.228 43.7434V43.7574C113.228 45.3041 113.4 46.6234 113.762 47.7004L113.766 47.7131L113.771 47.7256C113.966 48.2154 114.19 48.6249 114.46 48.9194C114.736 49.2206 115.087 49.4286 115.506 49.4286C115.952 49.4286 116.312 49.1992 116.583 48.8653C116.845 48.5419 117.049 48.0944 117.212 47.5622C117.542 46.492 117.7 45.2203 117.7 43.7574C117.7 42.0438 117.486 40.5933 117.036 39.4253C116.829 38.8124 116.578 38.306 116.266 37.9441C115.943 37.5698 115.532 37.3294 115.041 37.3294C114.278 37.3294 113.626 37.7341 113.086 38.3964C112.665 38.913 112.134 39.7895 111.495 41.0018C111.184 40.3821 110.897 39.8487 110.632 39.4032C110.261 38.7765 109.917 38.2916 109.601 37.9879C108.99 37.2917 108.175 36.9511 107.206 36.9511C106.049 36.9511 105.019 37.5196 104.121 38.5396C103.23 39.5516 102.441 41.0356 101.739 42.9551C100.331 46.8074 99.6339 51.3669 99.6339 56.6223C99.6339 59.0826 99.8047 61.2581 100.15 63.1449L100.151 63.149C100.48 64.8619 101.053 66.8338 101.866 69.0619C100.721 70.0023 99.9232 71.4258 99.4386 73.2701ZM108.791 67.4978L108.791 67.4978L108.79 67.5037C108.583 68.6098 108.297 69.3807 107.96 69.8637C107.638 70.3269 107.292 70.5008 106.91 70.5008C106.521 70.5008 106.184 70.3385 105.877 69.9391C105.555 69.5207 105.276 68.8492 105.071 67.8762C104.686 65.8248 104.488 61.9608 104.488 56.244C104.488 50.6959 104.729 46.7884 105.197 44.4879C105.432 43.3364 105.733 42.5275 106.075 42.0181C106.408 41.5232 106.742 41.3565 107.079 41.3565C107.475 41.3565 107.809 41.5156 108.105 41.8913C108.417 42.2874 108.686 42.9259 108.876 43.8575C109.26 45.7343 109.459 49.4684 109.459 55.1088C109.459 61.1662 109.232 65.2821 108.791 67.4978ZM104.334 94.2036H111.102C111.495 94.2036 111.823 94.3181 112.106 94.5439C112.397 94.7759 112.667 95.1462 112.896 95.6938C113.358 96.7991 113.609 98.5162 113.609 100.893C113.609 105.633 112.855 109.769 111.361 113.311C110.611 115.09 109.819 116.382 108.998 117.224C108.183 118.058 107.363 118.429 106.529 118.429C105.168 118.429 103.941 117.451 102.923 115.074C101.914 112.719 101.396 109.681 101.396 105.938C101.396 102.724 101.667 100.133 102.195 98.1522C102.7 96.2552 103.429 94.9659 104.334 94.2036Z" fill="url(#paint15_linear_3_1534)" stroke="#B73045"/>
<path d="M79.7531 73.2701L79.7527 73.2716C79.2567 75.1835 79.0168 77.9247 79.0168 81.4693C79.0168 84.5151 79.2224 87.0436 79.6415 89.0448C80.0218 90.8611 80.5869 92.2875 81.3727 93.2678C79.2909 97.3068 78.2545 101.828 78.2545 106.821C78.2545 111.574 78.9803 115.483 80.4647 118.517C81.9688 121.618 83.9512 123.339 86.462 123.339C89.5776 123.339 91.9623 120.636 93.7479 115.826C95.5838 111.041 96.4904 104.921 96.4904 97.4874C96.4904 92.387 96.0956 88.5104 95.2821 85.893C94.4777 83.3047 93.1809 81.7261 91.2474 81.7261H83.1164C82.4085 81.7261 82.0459 81.5169 81.8568 81.2208C81.6123 80.7448 81.4566 79.8483 81.4566 78.4423C81.4566 76.6275 81.6933 75.2334 82.1344 74.2288L82.1356 74.226C82.6111 73.1245 83.1573 72.7621 83.7093 72.7621H83.9211H84.0195C84.6806 73.5818 85.2217 74.1605 85.6282 74.4399L85.6353 74.4447L85.6425 74.4493C86.1248 74.7571 86.6714 74.9062 87.2666 74.9062C88.3392 74.9062 89.296 74.3339 90.1361 73.342C90.9729 72.3541 91.7348 70.906 92.4356 69.0318C93.8436 65.2664 94.5424 61.0013 94.5424 56.244C94.5424 52.3776 94.0679 48.5126 93.1199 44.6498C93.2158 44.3351 93.3561 44.0229 93.5434 43.7133L93.5426 43.7434L93.5424 43.7434V43.7574C93.5424 45.3041 93.715 46.6234 94.0766 47.7004L94.0809 47.7131L94.0858 47.7256C94.2802 48.2154 94.505 48.6249 94.7747 48.9194C95.0505 49.2206 95.4011 49.4286 95.821 49.4286C96.2661 49.4286 96.6265 49.1992 96.8975 48.8653C97.1599 48.5419 97.3632 48.0944 97.527 47.5622C97.8564 46.492 98.015 45.2203 98.015 43.7574C98.015 42.0438 97.8006 40.5933 97.3501 39.4253C97.1434 38.8124 96.8931 38.306 96.5806 37.9441C96.2575 37.5698 95.8465 37.3294 95.3552 37.3294C94.5926 37.3294 93.9408 37.7341 93.4008 38.3964C92.9795 38.913 92.4483 39.7895 91.8098 41.0018C91.4988 40.3821 91.2112 39.8487 90.9469 39.4032C90.5751 38.7765 90.2313 38.2916 89.9151 37.9879C89.3046 37.2917 88.4895 36.9511 87.5207 36.9511C86.3634 36.9511 85.3331 37.5196 84.4351 38.5396C83.5441 39.5516 82.7557 41.0356 82.054 42.9551C80.6455 46.8074 79.9485 51.3669 79.9485 56.6223C79.9485 59.0826 80.1193 61.2581 80.4648 63.1449L80.4656 63.149C80.7942 64.8619 81.3677 66.8338 82.181 69.0619C81.0351 70.0023 80.2378 71.4258 79.7531 73.2701ZM89.1054 67.4978L89.1054 67.4978L89.1043 67.5037C88.8979 68.6098 88.6113 69.3807 88.275 69.8637C87.9524 70.3269 87.6061 70.5008 87.2243 70.5008C86.8361 70.5008 86.4986 70.3385 86.1913 69.9391C85.8693 69.5207 85.5902 68.8492 85.3855 67.8762C85.0007 65.8248 84.8022 61.9608 84.8022 56.244C84.8022 50.6959 85.0431 46.7884 85.512 44.4879C85.7468 43.3364 86.048 42.5275 86.3901 42.0181C86.7224 41.5232 87.0571 41.3565 87.3937 41.3565C87.79 41.3565 88.1235 41.5156 88.4197 41.8913C88.7319 42.2874 89.0002 42.9259 89.1906 43.8575C89.5742 45.7343 89.7734 49.4684 89.7734 55.1088C89.7734 61.1662 89.5463 65.2821 89.1054 67.4978ZM84.6481 94.2036H91.4168C91.8099 94.2036 92.1373 94.3181 92.4206 94.5439C92.7117 94.7759 92.9815 95.1462 93.2106 95.6938C93.6728 96.7991 93.9235 98.5162 93.9235 100.893C93.9235 105.633 93.1696 109.769 91.676 113.311C90.926 115.09 90.1333 116.382 89.3121 117.224C88.498 118.058 87.6776 118.429 86.8431 118.429C85.483 118.429 84.2553 117.451 83.2372 115.074C82.2281 112.719 81.7107 109.681 81.7107 105.938C81.7107 102.724 81.9811 100.133 82.5091 98.1522C83.0147 96.2552 83.7434 94.9659 84.6481 94.2036Z" fill="url(#paint16_linear_3_1534)" stroke="#B73045"/>
<path d="M69.2781 84.7328L69.2781 89.5414V90.0414H69.7781H76.9351H77.4351V89.5414V85.8837V85.3837H76.9351H74.1742V37.0727L73.2132 36.8792C72.9327 37.5474 72.6932 38.0846 72.4941 38.4934C72.2908 38.9111 72.1426 39.1674 72.0471 39.2938L72.4461 39.5952L72.0471 39.2938C71.8881 39.5044 71.6973 39.5997 71.4297 39.5997H66.5596H66.0596V40.0997V43.7574V44.2574H66.5596H69.2781V69.4872C69.2781 74.1541 68.6764 78.2607 67.4831 81.8146C66.8839 83.5995 66.2493 84.8943 65.5938 85.7337C64.9404 86.5704 64.3152 86.8972 63.7223 86.8972C63.3737 86.8972 63.0968 86.781 62.8607 86.5416C62.6117 86.2892 62.386 85.8757 62.2152 85.2513C61.8662 83.889 61.6813 81.4252 61.6813 77.8116L61.6813 37.0727L60.7073 36.9135C60.4545 37.6665 60.2427 38.2555 60.0712 38.6844C59.8903 39.137 59.7764 39.3524 59.729 39.413C59.7142 39.4318 59.6632 39.4815 59.5141 39.5259C59.3648 39.5704 59.1489 39.5997 58.8522 39.5997H53.9821H53.4821V40.0997V43.7574V44.2574H53.9821H56.7429L56.7429 74.0278C56.7429 79.7616 57.2543 84.1197 58.3073 87.0613C58.8347 88.5346 59.5099 89.6868 60.3562 90.4749C61.2138 91.2734 62.2302 91.6811 63.3835 91.6811C65.0736 91.6811 66.4428 90.7456 67.4931 89.0477L67.4957 89.0433C68.1416 87.9746 68.7342 86.5343 69.2781 84.7328Z" fill="url(#paint17_linear_3_1534)" stroke="#B73045"/>
<path d="M45.3161 37.0727L44.3421 36.9135C44.1196 37.5764 43.9148 38.1031 43.7284 38.4996C43.5367 38.9074 43.3832 39.136 43.2781 39.2404L43.2704 39.248L43.263 39.256C43.0881 39.4454 42.7469 39.5997 42.1058 39.5997H37.6592H37.1592V40.0997V43.7574V44.2574H37.6592H40.42L40.42 85.3837H37.6592H37.1592V85.8837V89.5414V90.0414H37.6592H48.4581H48.9581V89.5414V85.8837V85.3837H48.4581H45.3161V65.4512C45.3161 58.5686 45.6864 53.1806 46.4192 49.273C46.7856 47.3191 47.2396 45.7526 47.7736 44.561C47.9572 44.1513 48.1483 43.7904 48.3456 43.4757C48.2283 44.2191 48.1698 44.9858 48.1698 45.7754C48.1698 47.5744 48.3707 49.1039 48.7887 50.349C48.9949 50.9631 49.2371 51.469 49.5316 51.8302C49.8317 52.1981 50.2223 52.4556 50.7026 52.4556C51.1897 52.4556 51.5887 52.2054 51.8947 51.8302C52.1924 51.4651 52.4276 50.9549 52.6198 50.3387C53.0073 49.0957 53.193 47.527 53.193 45.6493C53.193 43.2693 52.9095 41.3469 52.3108 39.9151C51.7538 38.4362 50.8994 37.4556 49.6439 37.4556C48.3395 37.4556 47.3195 38.5471 46.5048 40.2285C46.0802 41.1047 45.6846 42.1939 45.3161 43.4922V37.0727Z" fill="url(#paint18_linear_3_1534)" stroke="#B73045"/>
<path d="M35.1167 79.3081L34.4318 78.7793L34.3156 79.6368C33.9924 82.0226 33.6101 83.775 33.1786 84.9194C32.9622 85.4934 32.7454 85.8814 32.5422 86.1177C32.3431 86.3492 32.1966 86.3931 32.1008 86.3931C32.0775 86.3931 32.0038 86.3923 31.8833 86.2164C31.7552 86.0294 31.6227 85.706 31.5083 85.2052C31.2812 84.2106 31.1609 82.6797 31.1609 80.5868L31.1609 44.2577H35.8698H36.3698V43.7577V40.1001V39.6001H35.8698H31.1609L31.1609 23.4513V22.9513H30.6609H29.4751H28.9751V23.4513V25.2171C28.9751 29.2156 28.4994 32.6502 27.5599 35.5306C27.0874 36.9792 26.5864 38.0214 26.0717 38.692C25.5591 39.3601 25.0826 39.6001 24.6474 39.6001H23.2499H22.7499V40.1001V43.7577V44.2577H23.2499H26.1801L26.1801 78.821C26.1801 82.713 26.5905 85.7704 27.4423 87.9575C28.2873 90.127 29.5428 91.4292 31.2961 91.4292C32.7689 91.4292 33.8486 90.415 34.5909 88.7348C35.3269 87.0688 35.9408 84.3606 36.4498 80.6548L36.4892 80.368L36.2601 80.191L35.1167 79.3081Z" fill="url(#paint19_linear_3_1534)" stroke="#B73045"/>
<path d="M1 58.0139H0.5V58.5139L0.5 90.424V90.924H1H2.22811H2.72811V90.424C2.72811 88.4028 2.7998 87.0589 2.93138 86.3535L2.93146 86.3535L2.93296 86.3446C3 85.9453 3.07433 85.6855 3.14289 85.5362C3.19519 85.5616 3.26647 85.6045 3.35842 85.677C3.55462 85.8317 3.79484 86.0813 4.079 86.4441L4.08792 86.4554L4.09749 86.4663L4.98526 87.4736L4.98682 87.4753L6.08575 88.7341C6.08585 88.7343 6.08595 88.7344 6.08606 88.7345C7.74242 90.6384 9.49143 91.6808 11.3331 91.6808C12.8901 91.6808 14.2706 90.9636 15.4651 89.6212C16.6497 88.2898 17.6682 86.3279 18.5397 83.7747C20.2864 78.6577 21.1498 71.9965 21.1498 63.8113C21.1498 56.4796 20.4725 50.8624 19.0889 46.9971C17.728 43.0321 15.4716 40.3366 12.288 39.0074L12.2878 39.0073L10.1717 38.125C10.1714 38.1249 10.1712 38.1248 10.1709 38.1246C7.87917 37.1609 6.286 35.6506 5.35422 33.5927C4.43513 31.4153 3.95623 28.134 3.95623 23.7029C3.95623 18.7712 4.50457 14.8863 5.57612 12.0222L5.57629 12.0218C6.6932 9.02797 8.05972 7.80647 9.55444 7.80647C10.6188 7.80647 11.6122 8.29403 12.5434 9.36823C13.4842 10.4536 14.3407 12.1176 15.0931 14.4C16.5942 18.9534 17.3548 25.074 17.3548 32.7841V33.2841H17.8548H19.0829H19.5829V32.7841L19.5829 6.42358V5.92358H19.0829L17.8548 5.92358H17.3666L17.3549 6.4116L17.3126 8.17737L17.3124 8.17737V8.18936C17.3124 9.18872 17.2521 9.89797 17.146 10.3439C17.122 10.4448 17.0976 10.5239 17.0746 10.5851C17.0188 10.516 16.9527 10.4264 16.8764 10.313L16.2474 9.31391C14.6772 6.72527 13.519 5.03216 12.7902 4.3067C12.0303 3.52174 11.0172 3.14879 9.80853 3.14879C8.35817 3.14879 7.07561 3.8403 5.96854 5.1188C4.87054 6.38682 3.92375 8.25314 3.10928 10.6789C1.50451 15.4583 0.711743 21.6561 0.711743 29.2525C0.711743 36.4985 1.31835 41.9878 2.55873 45.682L2.55987 45.6854C3.83746 49.4039 6.00775 52.005 9.09015 53.418C9.09079 53.4183 9.09143 53.4186 9.09207 53.4189L11.246 54.4252C11.2465 54.4254 11.2469 54.4256 11.2473 54.4258C13.6244 55.5525 15.2833 57.2703 16.2499 59.5892L16.2497 59.5892L16.2543 59.5996C17.2574 61.8604 17.7783 65.1423 17.7783 69.487C17.7783 74.8348 17.1462 79.1409 15.905 82.427C14.6792 85.6629 13.1464 87.0231 11.4178 87.0231C8.89381 87.0231 6.74504 84.899 5.11678 80.051C3.53242 75.1651 2.72811 67.9971 2.72811 58.5139V58.0139H2.22811H1ZM3.19873 85.4387C3.19881 85.4392 3.19631 85.4427 3.19095 85.4478C3.19598 85.4408 3.19865 85.4382 3.19873 85.4387Z" fill="url(#paint20_linear_3_1534)" stroke="#B73045"/>
<defs>
<linearGradient id="paint0_linear_3_1534" x1="450" y1="67.0905" x2="445.553" y2="67.0905" gradientUnits="userSpaceOnUse">
<stop stop-color="#C41010"/>
<stop offset="1" stop-color="#710404"/>
</linearGradient>
<linearGradient id="paint1_linear_3_1534" x1="441.452" y1="64.2523" x2="424.512" y2="64.2523" gradientUnits="userSpaceOnUse">
<stop stop-color="#C41010"/>
<stop offset="1" stop-color="#710404"/>
</linearGradient>
<linearGradient id="paint2_linear_3_1534" x1="421.947" y1="63.307" x2="388.153" y2="63.307" gradientUnits="userSpaceOnUse">
<stop stop-color="#C41010"/>
<stop offset="1" stop-color="#710404"/>
</linearGradient>
<linearGradient id="paint3_linear_3_1534" x1="385.75" y1="46.7209" x2="375.332" y2="46.7209" gradientUnits="userSpaceOnUse">
<stop stop-color="#C41010"/>
<stop offset="1" stop-color="#710404"/>
</linearGradient>
<linearGradient id="paint4_linear_3_1534" x1="373.308" y1="47.4773" x2="347.688" y2="47.4773" gradientUnits="userSpaceOnUse">
<stop stop-color="#C41010"/>
<stop offset="1" stop-color="#710404"/>
</linearGradient>
<linearGradient id="paint5_linear_3_1534" x1="335.619" y1="45.2705" x2="312.709" y2="45.2705" gradientUnits="userSpaceOnUse">
<stop stop-color="#C41010"/>
<stop offset="1" stop-color="#710404"/>
</linearGradient>
<linearGradient id="paint6_linear_3_1534" x1="311.657" y1="80.145" x2="292.897" y2="80.145" gradientUnits="userSpaceOnUse">
<stop stop-color="#C41010"/>
<stop offset="1" stop-color="#710404"/>
</linearGradient>
<linearGradient id="paint7_linear_3_1534" x1="291.078" y1="64.1269" x2="268.125" y2="64.1269" gradientUnits="userSpaceOnUse">
<stop stop-color="#C41010"/>
<stop offset="1" stop-color="#710404"/>
</linearGradient>
<linearGradient id="paint8_linear_3_1534" x1="265.601" y1="64.1899" x2="247.052" y2="64.1899" gradientUnits="userSpaceOnUse">
<stop stop-color="#C41010"/>
<stop offset="1" stop-color="#710404"/>
</linearGradient>
<linearGradient id="paint9_linear_3_1534" x1="244.916" y1="63.307" x2="229.882" y2="63.307" gradientUnits="userSpaceOnUse">
<stop stop-color="#C41010"/>
<stop offset="1" stop-color="#710404"/>
</linearGradient>
<linearGradient id="paint10_linear_3_1534" x1="227.598" y1="45.2705" x2="204.687" y2="45.2705" gradientUnits="userSpaceOnUse">
<stop stop-color="#C41010"/>
<stop offset="1" stop-color="#710404"/>
</linearGradient>
<linearGradient id="paint11_linear_3_1534" x1="203.087" y1="47.4773" x2="177.466" y2="47.4773" gradientUnits="userSpaceOnUse">
<stop stop-color="#C41010"/>
<stop offset="1" stop-color="#710404"/>
</linearGradient>
<linearGradient id="paint12_linear_3_1534" x1="164.744" y1="64.1893" x2="151.277" y2="64.1893" gradientUnits="userSpaceOnUse">
<stop stop-color="#C41010"/>
<stop offset="1" stop-color="#710404"/>
</linearGradient>
<linearGradient id="paint13_linear_3_1534" x1="148.319" y1="64.2523" x2="131.379" y2="64.2523" gradientUnits="userSpaceOnUse">
<stop stop-color="#C41010"/>
<stop offset="1" stop-color="#710404"/>
</linearGradient>
<linearGradient id="paint14_linear_3_1534" x1="128.713" y1="45.3337" x2="118.253" y2="45.3337" gradientUnits="userSpaceOnUse">
<stop stop-color="#C41010"/>
<stop offset="1" stop-color="#710404"/>
</linearGradient>
<linearGradient id="paint15_linear_3_1534" x1="117.2" y1="80.145" x2="98.4399" y2="80.145" gradientUnits="userSpaceOnUse">
<stop stop-color="#C41010"/>
<stop offset="1" stop-color="#710404"/>
</linearGradient>
<linearGradient id="paint16_linear_3_1534" x1="97.515" y1="80.145" x2="78.7545" y2="80.145" gradientUnits="userSpaceOnUse">
<stop stop-color="#C41010"/>
<stop offset="1" stop-color="#710404"/>
</linearGradient>
<linearGradient id="paint17_linear_3_1534" x1="76.9351" y1="64.1269" x2="53.9821" y2="64.1269" gradientUnits="userSpaceOnUse">
<stop stop-color="#C41010"/>
<stop offset="1" stop-color="#710404"/>
</linearGradient>
<linearGradient id="paint18_linear_3_1534" x1="52.693" y1="63.307" x2="37.6592" y2="63.307" gradientUnits="userSpaceOnUse">
<stop stop-color="#C41010"/>
<stop offset="1" stop-color="#710404"/>
</linearGradient>
<linearGradient id="paint19_linear_3_1534" x1="35.9545" y1="57.1902" x2="23.2499" y2="57.1902" gradientUnits="userSpaceOnUse">
<stop stop-color="#C41010"/>
<stop offset="1" stop-color="#710404"/>
</linearGradient>
<linearGradient id="paint20_linear_3_1534" x1="20.6498" y1="47.4148" x2="1" y2="47.4148" gradientUnits="userSpaceOnUse">
<stop stop-color="#C41010"/>
<stop offset="1" stop-color="#710404"/>
</linearGradient>
</defs>
</svg>
